<svg width="50" height="50" viewBox="0 0 50 50" fill="none" xmlns="http://www.w3.org/2000/svg">
<g clip-path="url(#clip0)">
<path d="M44.7388 13.1561C43.7032 13.6571 43.2699 14.9033 43.7709 15.9383C45.1396 18.7658 45.8333 21.8135 45.8333 25C45.8333 36.4873 36.4873 45.8333 25 45.8333C13.5127 45.8333 4.16667 36.4873 4.16667 25C4.16667 13.5127 13.5127 4.16667 25 4.16667C29.7602 4.16667 34.2321 5.72103 37.9333 8.6614C38.8311 9.37805 40.1438 9.22801 40.8605 8.32723C41.5771 7.42696 41.4271 6.11572 40.5258 5.40009C36.144 1.91752 30.63 0 25 0C11.2157 0 0 11.2157 0 25C0 38.7843 11.2157 50 25 50C38.7843 50 50 38.7843 50 25C50 21.1802 49.1659 17.5196 47.521 14.124C47.021 13.0864 45.7708 12.6541 44.7388 13.1561Z" fill="#D2DEDA"/>
<path d="M24.0811 10C23.3351 10 23 10.6969 23 11.5556V22.4444C23 23.3031 23.6054 24 24.3514 24H31.1081C31.8541 24 33 24 33 22.7556C33 21.8969 31.8541 21.8222 31.1081 21.8222H25.1622V11.5556C25.1622 10.6969 24.827 10 24.0811 10Z" fill="#D2DEDA"/>
</g>
<defs>
<clipPath id="clip0">
<rect width="50" height="50" fill="white"/>
</clipPath>
</defs>
</svg>
