<svg width="50" height="50" viewBox="0 0 50 50" fill="none" xmlns="http://www.w3.org/2000/svg">
<path d="M15.904 37.5H15.9464C16.4006 37.4955 16.8493 37.3968 17.2657 37.2098C17.6821 37.0228 18.0576 36.7512 18.3698 36.4114L28.1571 25.8322L28.3273 26.0079C28.3916 26.0742 28.4679 26.1268 28.552 26.1626C28.636 26.1985 28.7261 26.217 28.817 26.217C28.908 26.217 28.9981 26.1985 29.0821 26.1626C29.1661 26.1268 29.2425 26.0742 29.3068 26.0079L30.6364 24.6385C30.9517 24.832 31.3017 24.9579 31.6653 25.0086C31.9621 25.0478 32.238 25.187 32.4501 25.4043L32.7584 25.7214C32.6676 26.0028 32.6546 26.3047 32.7208 26.5932C32.7869 26.8818 32.9297 27.1458 33.1331 27.3557L34.9024 29.1778C35.0323 29.3115 35.2084 29.3865 35.392 29.3865C35.5756 29.3865 35.7516 29.3115 35.8815 29.1778L40.6303 24.2872C40.6947 24.221 40.7457 24.1424 40.7806 24.0559C40.8154 23.9693 40.8333 23.8766 40.8333 23.7829C40.8333 23.6892 40.8154 23.5964 40.7806 23.5099C40.7457 23.4234 40.6947 23.3447 40.6303 23.2785L38.8641 21.4543C38.7207 21.3058 38.55 21.188 38.3621 21.1079C38.1741 21.0277 37.9726 20.9867 37.7691 20.9873C37.6023 20.9871 37.4364 21.0147 37.278 21.0688L36.9702 20.7521C36.7588 20.5338 36.6238 20.2494 36.5863 19.9435C36.5088 19.3241 36.2349 18.7483 35.8071 18.3056L27.1358 9.37576C27.0715 9.30948 26.9951 9.25689 26.9111 9.22102C26.8271 9.18514 26.737 9.16667 26.646 9.16667C26.5551 9.16667 26.465 9.18514 26.381 9.22102C26.2969 9.25689 26.2206 9.30948 26.1563 9.37576L24.6446 10.9322C24.5413 11.0385 24.4733 11.1758 24.4504 11.3243C24.4274 11.4728 24.4507 11.625 24.5168 11.7591L24.5564 11.8406C24.9499 12.6338 25.089 13.5351 24.9536 14.4149C24.8183 15.2947 24.4153 16.1076 23.8029 16.7365C23.7385 16.8027 23.6875 16.8814 23.6526 16.9679C23.6178 17.0544 23.5998 17.1472 23.5998 17.2409C23.5998 17.3346 23.6178 17.4273 23.6526 17.5139C23.6875 17.6004 23.7385 17.679 23.8029 17.7452L24.9849 18.9626L23.7249 20.2598C23.5951 20.3935 23.5223 20.5749 23.5223 20.7639C23.5223 20.953 23.5951 21.1343 23.7249 21.2681L23.8282 21.3745L13.5557 31.454C13.0633 31.9375 12.7227 32.5618 12.578 33.2464C12.4332 33.9311 12.4909 34.6447 12.7436 35.2952C12.9963 35.9458 13.4324 36.5035 13.9957 36.8965C14.559 37.2895 15.2236 37.4997 15.904 37.5ZM25.9675 11.5867L26.6458 10.8886L34.8269 19.3131C35.0378 19.5318 35.173 19.8159 35.2115 20.1216C35.2879 20.7416 35.562 21.3178 35.9907 21.76L36.673 22.463C36.7372 22.5293 36.8136 22.5819 36.8976 22.6178C36.9816 22.6536 37.0717 22.6721 37.1627 22.6721C37.2536 22.6721 37.3437 22.6536 37.4277 22.6178C37.5118 22.5819 37.5881 22.5293 37.6524 22.463C37.6833 22.4313 37.7251 22.4134 37.7687 22.4134C37.8124 22.4134 37.8542 22.4313 37.8851 22.463L39.1649 23.781L35.3936 27.665L34.1137 26.347C34.0831 26.3151 34.0659 26.272 34.0659 26.2272C34.0659 26.1823 34.0831 26.1392 34.1137 26.1073C34.1781 26.0412 34.2291 25.9626 34.264 25.8761C34.2988 25.7896 34.3167 25.6968 34.3167 25.6032C34.3167 25.5096 34.2988 25.4168 34.264 25.3303C34.2291 25.2438 34.1781 25.1652 34.1137 25.0991L33.4307 24.3952C33.0008 23.9545 32.4415 23.6726 31.8399 23.5932C31.5433 23.5543 31.2676 23.4153 31.0559 23.1978L25.2434 17.2093C25.8365 16.422 26.2161 15.4866 26.3433 14.4988C26.4705 13.511 26.3409 12.5061 25.9675 11.5867ZM29.5869 23.702L28.8172 24.4951L25.1943 20.7639L25.964 19.9709L29.5869 23.702ZM14.511 32.4863L24.808 22.3831L27.1777 24.8236L17.3682 35.428C17.1829 35.6295 16.96 35.7905 16.713 35.9014C16.4659 36.0122 16.1996 36.0706 15.9301 36.0732C15.387 36.0715 14.8659 35.8523 14.477 35.4618C14.2866 35.2656 14.1361 35.0322 14.0346 34.7752C13.9331 34.5183 13.8824 34.243 13.8857 33.9656C13.889 33.6882 13.9461 33.4143 14.0537 33.16C14.1613 32.9057 14.3172 32.6761 14.5122 32.4847L14.511 32.4863Z" fill="#D2DEDA"/>
<path d="M3.13394 18.9801C1.89838 18.6399 0.609633 19.365 0.385424 20.6267C-0.56809 25.9927 0.255439 31.5477 2.76704 36.4322C5.63379 42.0074 10.4905 46.302 16.3746 48.4649C22.2587 50.6278 28.7406 50.5011 34.5357 48.11C40.3308 45.7188 45.016 41.2376 47.6627 35.5547C50.3094 29.8718 50.7244 23.4019 48.8255 17.4274C46.9266 11.4529 42.8523 6.40983 37.4103 3.29781C31.9682 0.185799 25.5556 -0.768042 19.4434 0.625344C14.0884 1.84611 9.30644 4.79047 5.81272 8.97342C4.99121 9.957 5.26555 11.41 6.32102 12.1369C7.37648 12.8637 8.81198 12.5868 9.65412 11.6208C12.4723 8.38822 16.2551 6.11202 20.4749 5.15006C25.4524 4.01533 30.6747 4.79211 35.1065 7.32644C39.5384 9.86076 42.8563 13.9676 44.4027 18.8331C45.9492 23.6985 45.6112 28.9674 43.4558 33.5954C41.3004 38.2234 37.4849 41.8727 32.7656 43.82C28.0463 45.7673 22.7676 45.8705 17.9758 44.1091C13.1839 42.3477 9.22878 38.8503 6.89419 34.31C4.91504 30.4611 4.22303 26.1008 4.8838 21.8635C5.08126 20.5972 4.36949 19.3202 3.13394 18.9801Z" fill="#D2DEDA"/>
</svg>
