<svg width="50" height="50" viewBox="0 0 50 50" fill="none" xmlns="http://www.w3.org/2000/svg">
<g clip-path="url(#clip0)">
<path d="M21.8508 21.5735C20.7112 21.5735 19.5422 21.1445 18.6561 20.2919C17.7277 19.4003 17.5023 18.2747 17.264 17.083C16.9997 15.757 16.7256 14.3855 15.4158 13.1267C15.2642 12.9805 15.2111 12.7584 15.2793 12.5601C15.3487 12.3597 15.5274 12.2178 15.7376 12.1983L15.886 12.1831C18.577 11.909 21.9256 11.5775 24.5559 14.105C25.389 14.9045 25.8927 16.1319 25.9047 17.3853C25.9166 18.5791 25.4973 19.6625 24.7238 20.4338C23.9622 21.1954 22.9201 21.5735 21.8508 21.5735ZM16.9022 13.1733C17.8382 14.4213 18.0949 15.7105 18.3267 16.8718C18.5391 17.9345 18.7222 18.8543 19.4057 19.5119C20.566 20.6255 22.672 20.956 23.9568 19.67C24.5223 19.1056 24.8289 18.2975 24.8202 17.3972C24.8105 16.4276 24.4313 15.4895 23.8041 14.8871C21.7967 12.9577 19.2595 12.9653 16.9022 13.1733Z" fill="#D2DEDA"/>
<path d="M31.5184 19.5833C31.4425 19.5833 31.3656 19.5811 31.2898 19.5757C30.4101 19.5237 29.6464 19.1749 29.1383 18.5931C27.691 16.9367 28.1698 14.6736 29.4438 13.5264C31.592 11.5926 34.2213 11.9371 36.3316 12.2155L36.4454 12.2307C36.6545 12.2578 36.8289 12.4051 36.8928 12.6077C36.9556 12.8103 36.895 13.0302 36.7379 13.1721C35.7174 14.0908 35.4747 15.1297 35.2407 16.1339C35.0316 17.0299 34.816 17.9561 34.0436 18.6516C33.385 19.2431 32.4544 19.5833 31.5184 19.5833ZM33.8064 13.0822C32.528 13.0822 31.2573 13.3498 30.1675 14.3324C29.2748 15.1351 28.94 16.72 29.953 17.8792C30.2693 18.241 30.7665 18.4588 31.3537 18.4934C32.0774 18.5314 32.8162 18.293 33.3178 17.8434C33.8378 17.3754 33.9916 16.7179 34.1855 15.8848C34.3751 15.069 34.6015 14.1016 35.2775 13.1743C34.7933 13.1223 34.2982 13.0822 33.8064 13.0822ZM29.8056 13.9294H29.8165H29.8056Z" fill="#D2DEDA"/>
<path d="M26.7646 25.0649C26.509 25.0649 26.2804 24.8829 26.2327 24.6219C25.5199 20.7706 21.8582 17.5997 21.8203 17.5683C21.5928 17.3743 21.5668 17.032 21.7607 16.8056C21.9546 16.577 22.2959 16.5488 22.5245 16.7449C22.687 16.8836 26.5144 20.1899 27.2987 24.4247C27.3529 24.7183 27.159 25.001 26.8643 25.0552C26.8307 25.0617 26.7982 25.0649 26.7646 25.0649Z" fill="#D2DEDA"/>
<path d="M15.7917 35.8333H12.5417C12.2427 35.8333 12 35.5907 12 35.2917V25.5417C12 25.2427 12.2427 25 12.5417 25C16.2261 25 18.1728 26.2415 18.2541 26.2946C18.448 26.4213 18.5401 26.6575 18.4838 26.8818L16.3171 35.4249C16.2553 35.6654 16.0398 35.8333 15.7917 35.8333ZM13.0833 34.75H15.3703L17.33 27.0258C16.7201 26.7344 15.2836 26.1743 13.0833 26.0931V34.75Z" fill="#D2DEDA"/>
<path d="M26.0834 38C23.5267 38 18.5834 35.8507 15.8632 34.568C15.5924 34.4413 15.4775 34.1174 15.6043 33.8476C15.731 33.5757 16.0549 33.4619 16.3258 33.5887C18.4491 34.5897 23.6491 36.9167 26.0834 36.9167C28.718 36.9167 34.9288 33.8216 36.7152 32.9019C36.4335 32.5335 35.8518 32.0417 34.75 32.0417C33.7501 32.0417 32.4826 32.4415 31.2563 32.8293C29.953 33.2399 28.6043 33.6667 27.4375 33.6667C25.2015 33.6667 22.2321 32.5964 22.1064 32.5509C21.8259 32.449 21.6807 32.1381 21.7825 31.8565C21.8844 31.5759 22.1942 31.4318 22.4769 31.5325C22.5051 31.5434 25.3933 32.5834 27.4375 32.5834C28.4374 32.5834 29.7049 32.1836 30.9313 31.7958C32.2345 31.3852 33.5833 30.9584 34.75 30.9584C37.2774 30.9584 37.9448 32.8726 37.9719 32.9539C38.0553 33.2041 37.9469 33.4782 37.7129 33.6039C37.376 33.7815 29.4298 38 26.0834 38Z" fill="#D2DEDA"/>
<path d="M29.875 33.2226C29.576 33.2226 29.3334 32.9799 29.3334 32.6809V32.1392C29.3334 31.3831 28.8242 30.7352 28.094 30.5662L17.6355 28.041C17.3441 27.9706 17.1654 27.6781 17.2358 27.3866C17.3051 27.0941 17.603 26.9219 17.889 26.9869L28.3432 29.5111C29.563 29.796 30.4167 30.8771 30.4167 32.1392V32.6809C30.4167 32.9799 30.174 33.2226 29.875 33.2226Z" fill="#D2DEDA"/>
<path d="M26.7658 25.0629C26.7647 25.0629 26.7636 25.0629 26.7625 25.0629C26.4646 25.0607 26.223 24.8191 26.2241 24.5212C26.2241 24.3338 26.2924 19.9203 31.2205 16.9531C31.4761 16.7992 31.8087 16.8805 31.9636 17.1383C32.1185 17.394 32.0351 17.7276 31.7795 17.8826C27.3952 20.5226 27.3096 24.3641 27.3085 24.5266C27.3053 24.8224 27.0637 25.0629 26.7658 25.0629Z" fill="#D2DEDA"/>
</g>
<path d="M47.6013 22.8726C48.8806 22.7708 49.8455 21.6465 49.6196 20.3832C48.6746 15.0986 46.0035 10.2385 41.9812 6.56478C37.3804 2.36258 31.3476 0.0195614 25.0786 0.000121798C18.8096 -0.0193178 12.762 2.28624 8.1344 6.45983C3.50685 10.6334 0.637116 16.3704 0.0939974 22.5337C-0.449121 28.697 1.37402 34.8367 5.20206 39.7359C9.03011 44.6351 14.5836 47.9363 20.7619 48.985C26.9402 50.0338 33.2923 48.7536 38.5592 45.3982C43.1619 42.466 46.6422 38.1359 48.4979 33.0941C48.9422 31.887 48.1838 30.6093 46.9378 30.2901C45.703 29.9738 44.4572 30.7205 43.9928 31.9075C42.4496 35.8522 39.6752 39.2361 36.0422 41.5506C31.753 44.2831 26.5801 45.3256 21.5486 44.4716C16.5172 43.6175 11.9946 40.9291 8.87719 36.9394C5.75976 32.9496 4.27505 27.9496 4.71735 22.9304C5.15965 17.9113 7.49666 13.2393 11.2652 9.84041C15.0337 6.44158 19.9587 4.564 25.064 4.57984C30.1692 4.59567 35.0822 6.50375 38.829 9.92589C41.9991 12.8213 44.1387 16.6218 44.9707 20.7648C45.2227 22.0193 46.3259 22.9741 47.6013 22.8726Z" fill="#D2DEDA"/>
<defs>
<clipPath id="clip0">
<rect width="26" height="26" fill="white" transform="translate(12 12)"/>
</clipPath>
</defs>
</svg>
