<svg width="50" height="50" viewBox="0 0 50 50" fill="none" xmlns="http://www.w3.org/2000/svg">
<path d="M27.9708 22.3152C27.1738 21.5182 25.7709 21.6806 25.0055 21.8484C23.92 22.0863 22.9077 22.5721 22.3636 23.1162C21.3709 24.1089 21.4185 25.7345 22.0789 26.9179C21.2348 27.9149 20.8074 28.8791 20.8074 29.7914C20.8074 30.2084 21.1455 30.5466 21.5626 30.5466C21.9797 30.5466 22.3178 30.2084 22.3178 29.7914C22.3178 29.2295 22.6564 28.6149 23.1104 28.0476C23.709 28.4517 24.4586 28.6879 25.1927 28.6878C25.9231 28.6878 26.6374 28.4545 27.1697 27.9223C27.7138 27.3782 28.1995 26.3659 28.4375 25.2805C28.6053 24.515 28.7677 23.1121 27.9708 22.3152ZM26.9621 24.957C26.771 25.8288 26.3846 26.5714 26.1017 26.8543C25.6562 27.2997 24.8202 27.2553 24.1865 26.9336C24.5833 26.5819 24.9525 26.3035 25.186 26.1473C25.5327 25.9158 25.6262 25.4472 25.395 25.1003C25.1637 24.7533 24.6947 24.6595 24.3477 24.8908C24.3207 24.9087 23.8256 25.2409 23.2171 25.7729C23.0294 25.2012 23.0594 24.5563 23.4315 24.1842C23.7145 23.9013 24.457 23.5149 25.3288 23.3238C25.6712 23.2487 25.9596 23.2196 26.1934 23.2196C26.5818 23.2196 26.8194 23.2999 26.9026 23.3831C27.0361 23.5165 27.1619 24.0457 26.9621 24.957Z" fill="#D2DEDA"/>
<path d="M36.455 23.2249L25.7944 12.1733C25.7913 12.17 25.7881 12.1668 25.7849 12.1636C25.1223 11.501 24.0444 11.501 23.3818 12.1636C23.3786 12.1668 23.3754 12.17 23.3723 12.1733L12.7117 23.2249C12.4221 23.5251 12.4307 24.0032 12.7309 24.2927C13.0311 24.5823 13.5092 24.5737 13.7987 24.2735L14.388 23.6626V33.6613C14.388 34.8585 15.3621 35.8325 16.5593 35.8325H32.6074C33.8046 35.8325 34.7787 34.8585 34.7787 33.6613V23.6626L35.3679 24.2735C35.5161 24.4271 35.7136 24.5044 35.9116 24.5044C36.1003 24.5044 36.2893 24.4341 36.4358 24.2927C36.736 24.0032 36.7446 23.5251 36.455 23.2249ZM33.2682 33.6613C33.2682 34.0257 32.9718 34.3221 32.6074 34.3221H16.5593C16.1949 34.3221 15.8985 34.0257 15.8985 33.6613V22.0968L24.4528 13.2287C24.5256 13.1589 24.641 13.1589 24.7139 13.2287L33.2682 22.0968V33.6613Z" fill="#D2DEDA"/>
<path d="M7.54941 10.671C6.51635 9.82276 4.9802 9.96684 4.23574 11.077C1.19663 15.6092 -0.288918 21.0336 0.0465202 26.5244C0.431365 32.824 3.18464 38.7449 7.75375 43.0988C12.3229 47.4527 18.3696 49.9173 24.6805 49.998C30.9913 50.0786 37.0991 47.7694 41.778 43.5337C46.4569 39.2981 49.3606 33.4495 49.9064 27.1618C50.4521 20.8741 48.5995 14.6126 44.7203 9.63417C40.8412 4.6557 35.2226 1.32866 28.9922 0.320815C23.5617 -0.557647 18.0168 0.382494 13.2055 2.95704C12.0269 3.58769 11.7311 5.10198 12.4728 6.21409C13.2144 7.32619 14.712 7.6119 15.9049 7.00882C19.6865 5.09703 23.9958 4.41611 28.2192 5.09931C33.2432 5.91201 37.7739 8.59486 40.902 12.6094C44.03 16.6239 45.524 21.673 45.0839 26.7432C44.6438 31.8134 42.3023 36.5296 38.5294 39.9451C34.7564 43.3607 29.8312 45.2228 24.7423 45.1577C19.6534 45.0927 14.7775 43.1053 11.093 39.5944C7.40863 36.0836 5.18845 31.3091 4.87813 26.2293C4.61725 21.9589 5.72228 17.7384 7.99976 14.1651C8.7182 13.0379 8.58247 11.5193 7.54941 10.671Z" fill="#D2DEDA"/>
</svg>
