<svg width="45" height="45" viewBox="0 0 45 45" fill="none" xmlns="http://www.w3.org/2000/svg">
<path d="M44.2969 45H0.703125C0.314297 45 0 44.6462 0 44.2085C0 43.7708 0.314297 43.417 0.703125 43.417H44.2969C44.6857 43.417 45 43.7708 45 44.2085C45 44.6462 44.6857 45 44.2969 45Z" fill="#D2DEDA"/>
<path d="M2.81396 45C2.42514 45 2.11084 44.6462 2.11084 44.2085V3.04149C2.11084 2.6038 2.42514 2.25 2.81396 2.25C3.20279 2.25 3.51709 2.6038 3.51709 3.04149V44.2085C3.51709 44.6462 3.20279 45 2.81396 45Z" fill="#D2DEDA"/>
<path d="M4.92334 45C4.53451 45 4.22021 44.6462 4.22021 44.2085V3.04149C4.22021 2.6038 4.53451 2.25 4.92334 2.25C5.31217 2.25 5.62646 2.6038 5.62646 3.04149V44.2085C5.62646 44.6462 5.31217 45 4.92334 45Z" fill="#D2DEDA"/>
<path d="M4.92334 3.83298H2.81396C2.42514 3.83298 2.11084 3.47919 2.11084 3.04149C2.11084 2.6038 2.42514 2.25 2.81396 2.25H4.92334C5.31217 2.25 5.62646 2.6038 5.62646 3.04149C5.62646 3.47919 5.31217 3.83298 4.92334 3.83298Z" fill="#D2DEDA"/>
<path d="M12.6584 11.7479H4.92334C4.53451 11.7479 4.22021 11.3941 4.22021 10.9564V4.62444C4.22021 4.18674 4.53451 3.83295 4.92334 3.83295H12.6584C13.0472 3.83295 13.3615 4.18674 13.3615 4.62444V10.9564C13.3615 11.3941 13.0472 11.7479 12.6584 11.7479ZM5.62646 10.1649H11.9553V5.41593H5.62646V10.1649Z" fill="#D2DEDA"/>
<path d="M17.5818 14.9139H9.84668C9.45785 14.9139 9.14355 14.5601 9.14355 14.1224V10.9564C9.14355 10.5187 9.45785 10.1649 9.84668 10.1649C10.2355 10.1649 10.5498 10.5187 10.5498 10.9564V13.3309H16.4434L15.5455 11.3102C15.4464 11.0878 15.4464 10.825 15.5455 10.6018L16.4434 8.58115H12.6585C12.2696 8.58115 11.9554 8.22735 11.9554 7.78966C11.9554 7.35197 12.2696 6.99817 12.6585 6.99817H17.5818C17.8257 6.99817 18.0521 7.14064 18.1801 7.37413C18.3088 7.60762 18.32 7.89889 18.2111 8.14425L16.9609 10.9564L18.2111 13.7686C18.32 14.0139 18.3088 14.3052 18.1801 14.5387C18.0521 14.7714 17.8257 14.9139 17.5818 14.9139Z" fill="#D2DEDA"/>
<path d="M9.84588 14.9139C9.66588 14.9139 9.48588 14.8363 9.34877 14.682C9.07385 14.3725 9.07385 13.8723 9.34877 13.5628L12.1613 10.3968C12.4362 10.0874 12.8806 10.0874 13.1555 10.3968C13.4304 10.7063 13.4304 11.2065 13.1555 11.516L10.343 14.682C10.2059 14.8363 10.0259 14.9139 9.84588 14.9139Z" fill="#D2DEDA"/>
<path d="M39.3706 44.9999C38.2076 44.9999 37.2612 43.9346 37.2612 42.6254C37.2612 41.3163 38.2076 40.251 39.3706 40.251C40.5336 40.251 41.48 41.3163 41.48 42.6254C41.48 43.9346 40.5336 44.9999 39.3706 44.9999ZM39.3706 41.834C38.9825 41.834 38.6675 42.1885 38.6675 42.6254C38.6675 43.0624 38.9825 43.4169 39.3706 43.4169C39.7587 43.4169 40.0737 43.0624 40.0737 42.6254C40.0737 42.1885 39.7587 41.834 39.3706 41.834Z" fill="#D2DEDA"/>
<path d="M39.3706 41.834C38.2076 41.834 37.2612 40.7687 37.2612 39.4596C37.2612 38.1504 38.2076 37.0851 39.3706 37.0851C40.5336 37.0851 41.48 38.1504 41.48 39.4596C41.48 40.7687 40.5336 41.834 39.3706 41.834ZM39.3706 38.6681C38.9825 38.6681 38.6675 39.0227 38.6675 39.4596C38.6675 39.8965 38.9825 40.251 39.3706 40.251C39.7587 40.251 40.0737 39.8965 40.0737 39.4596C40.0737 39.0227 39.7587 38.6681 39.3706 38.6681Z" fill="#D2DEDA"/>
<path d="M39.3706 38.6681C38.2076 38.6681 37.2612 37.6028 37.2612 36.2937C37.2612 34.9845 38.2076 33.9192 39.3706 33.9192C40.5336 33.9192 41.48 34.9845 41.48 36.2937C41.48 37.6028 40.5336 38.6681 39.3706 38.6681ZM39.3706 35.5022C38.9825 35.5022 38.6675 35.8568 38.6675 36.2937C38.6675 36.7306 38.9825 37.0852 39.3706 37.0852C39.7587 37.0852 40.0737 36.7306 40.0737 36.2937C40.0737 35.8568 39.7587 35.5022 39.3706 35.5022Z" fill="#D2DEDA"/>
<path d="M39.3706 35.5021C38.2076 35.5021 37.2612 34.4368 37.2612 33.1276C37.2612 31.8185 38.2076 30.7532 39.3706 30.7532C40.5336 30.7532 41.48 31.8185 41.48 33.1276C41.48 34.4368 40.5336 35.5021 39.3706 35.5021ZM39.3706 32.3362C38.9825 32.3362 38.6675 32.6907 38.6675 33.1276C38.6675 33.5645 38.9825 33.9191 39.3706 33.9191C39.7587 33.9191 40.0737 33.5645 40.0737 33.1276C40.0737 32.6907 39.7587 32.3362 39.3706 32.3362Z" fill="#D2DEDA"/>
<path d="M39.3706 32.3361C38.2076 32.3361 37.2612 31.2708 37.2612 29.9616C37.2612 28.6525 38.2076 27.5872 39.3706 27.5872C40.5336 27.5872 41.48 28.6525 41.48 29.9616C41.48 31.2708 40.5336 32.3361 39.3706 32.3361ZM39.3706 29.1701C38.9825 29.1701 38.6675 29.5247 38.6675 29.9616C38.6675 30.3985 38.9825 30.7531 39.3706 30.7531C39.7587 30.7531 40.0737 30.3985 40.0737 29.9616C40.0737 29.5247 39.7587 29.1701 39.3706 29.1701Z" fill="#D2DEDA"/>
<path d="M39.3706 29.1702C38.2076 29.1702 37.2612 28.1049 37.2612 26.7957C37.2612 25.4866 38.2076 24.4213 39.3706 24.4213C40.5336 24.4213 41.48 25.4866 41.48 26.7957C41.48 28.1049 40.5336 29.1702 39.3706 29.1702ZM39.3706 26.0042C38.9825 26.0042 38.6675 26.3588 38.6675 26.7957C38.6675 27.2326 38.9825 27.5872 39.3706 27.5872C39.7587 27.5872 40.0737 27.2326 40.0737 26.7957C40.0737 26.3588 39.7587 26.0042 39.3706 26.0042Z" fill="#D2DEDA"/>
<path d="M13.3579 44.9999C12.1949 44.9999 11.2485 43.9346 11.2485 42.6254C11.2485 41.3163 12.1949 40.251 13.3579 40.251C14.5209 40.251 15.4673 41.3163 15.4673 42.6254C15.4673 43.9346 14.5209 44.9999 13.3579 44.9999ZM13.3579 41.834C12.9698 41.834 12.6548 42.1885 12.6548 42.6254C12.6548 43.0624 12.9698 43.4169 13.3579 43.4169C13.746 43.4169 14.061 43.0624 14.061 42.6254C14.061 42.1885 13.746 41.834 13.3579 41.834Z" fill="#D2DEDA"/>
<path d="M13.3579 41.834C12.1949 41.834 11.2485 40.7687 11.2485 39.4596C11.2485 38.1504 12.1949 37.0851 13.3579 37.0851C14.5209 37.0851 15.4673 38.1504 15.4673 39.4596C15.4673 40.7687 14.5209 41.834 13.3579 41.834ZM13.3579 38.6681C12.9698 38.6681 12.6548 39.0227 12.6548 39.4596C12.6548 39.8965 12.9698 40.251 13.3579 40.251C13.746 40.251 14.061 39.8965 14.061 39.4596C14.061 39.0227 13.746 38.6681 13.3579 38.6681Z" fill="#D2DEDA"/>
<path d="M13.3579 38.6681C12.1949 38.6681 11.2485 37.6028 11.2485 36.2937C11.2485 34.9845 12.1949 33.9192 13.3579 33.9192C14.5209 33.9192 15.4673 34.9845 15.4673 36.2937C15.4673 37.6028 14.5209 38.6681 13.3579 38.6681ZM13.3579 35.5022C12.9698 35.5022 12.6548 35.8568 12.6548 36.2937C12.6548 36.7306 12.9698 37.0852 13.3579 37.0852C13.746 37.0852 14.061 36.7306 14.061 36.2937C14.061 35.8568 13.746 35.5022 13.3579 35.5022Z" fill="#D2DEDA"/>
<path d="M13.3579 35.5021C12.1949 35.5021 11.2485 34.4368 11.2485 33.1276C11.2485 31.8185 12.1949 30.7532 13.3579 30.7532C14.5209 30.7532 15.4673 31.8185 15.4673 33.1276C15.4673 34.4368 14.5209 35.5021 13.3579 35.5021ZM13.3579 32.3362C12.9698 32.3362 12.6548 32.6907 12.6548 33.1276C12.6548 33.5645 12.9698 33.9191 13.3579 33.9191C13.746 33.9191 14.061 33.5645 14.061 33.1276C14.061 32.6907 13.746 32.3362 13.3579 32.3362Z" fill="#D2DEDA"/>
<path d="M13.3579 32.3361C12.1949 32.3361 11.2485 31.2708 11.2485 29.9616C11.2485 28.6525 12.1949 27.5872 13.3579 27.5872C14.5209 27.5872 15.4673 28.6525 15.4673 29.9616C15.4673 31.2708 14.5209 32.3361 13.3579 32.3361ZM13.3579 29.1701C12.9698 29.1701 12.6548 29.5247 12.6548 29.9616C12.6548 30.3985 12.9698 30.7531 13.3579 30.7531C13.746 30.7531 14.061 30.3985 14.061 29.9616C14.061 29.5247 13.746 29.1701 13.3579 29.1701Z" fill="#D2DEDA"/>
<path d="M13.3579 29.1702C12.1949 29.1702 11.2485 28.1049 11.2485 26.7957C11.2485 25.4866 12.1949 24.4213 13.3579 24.4213C14.5209 24.4213 15.4673 25.4866 15.4673 26.7957C15.4673 28.1049 14.5209 29.1702 13.3579 29.1702ZM13.3579 26.0042C12.9698 26.0042 12.6548 26.3588 12.6548 26.7957C12.6548 27.2326 12.9698 27.5872 13.3579 27.5872C13.746 27.5872 14.061 27.2326 14.061 26.7957C14.061 26.3588 13.746 26.0042 13.3579 26.0042Z" fill="#D2DEDA"/>
<path d="M42.186 26.0074H11.2471C10.8582 26.0074 10.5439 25.6536 10.5439 25.2159C10.5439 24.7782 10.8582 24.4244 11.2471 24.4244H42.186C42.5748 24.4244 42.8891 24.7782 42.8891 25.2159C42.8891 25.6536 42.5748 26.0074 42.186 26.0074Z" fill="#D2DEDA"/>
<path d="M37.0288 22.8414H16.4048C16.016 22.8414 15.7017 22.4876 15.7017 22.0499C15.7017 21.6122 16.016 21.2584 16.4048 21.2584H37.0288C37.4177 21.2584 37.732 21.6122 37.732 22.0499C37.732 22.4876 37.4177 22.8414 37.0288 22.8414Z" fill="#D2DEDA"/>
<path d="M31.8672 19.6755H21.5664C21.1776 19.6755 20.8633 19.3217 20.8633 18.884C20.8633 18.4463 21.1776 18.0925 21.5664 18.0925H31.8672C32.256 18.0925 32.5703 18.4463 32.5703 18.884C32.5703 19.3217 32.256 19.6755 31.8672 19.6755Z" fill="#D2DEDA"/>
<path d="M39.3707 29.1639H13.3579C12.9691 29.1639 12.6548 28.8101 12.6548 28.3724C12.6548 27.9347 12.9691 27.5809 13.3579 27.5809H39.3707C39.7595 27.5809 40.0738 27.9347 40.0738 28.3724C40.0738 28.8101 39.7595 29.1639 39.3707 29.1639Z" fill="#D2DEDA"/>
<path d="M39.3707 32.3266H13.3579C12.9691 32.3266 12.6548 31.9728 12.6548 31.5351C12.6548 31.0974 12.9691 30.7437 13.3579 30.7437H39.3707C39.7595 30.7437 40.0738 31.0974 40.0738 31.5351C40.0738 31.9728 39.7595 32.3266 39.3707 32.3266Z" fill="#D2DEDA"/>
<path d="M23.2019 35.4895H13.3589C12.9701 35.4895 12.6558 35.1357 12.6558 34.698C12.6558 34.2603 12.9701 33.9065 13.3589 33.9065H23.2019C23.5908 33.9065 23.9051 34.2603 23.9051 34.698C23.9051 35.1357 23.5908 35.4895 23.2019 35.4895Z" fill="#D2DEDA"/>
<path d="M23.2019 38.6522H13.3589C12.9701 38.6522 12.6558 38.2984 12.6558 37.8607C12.6558 37.423 12.9701 37.0692 13.3589 37.0692H23.2019C23.5908 37.0692 23.9051 37.423 23.9051 37.8607C23.9051 38.2984 23.5908 38.6522 23.2019 38.6522Z" fill="#D2DEDA"/>
<path d="M23.2019 41.815H13.3589C12.9701 41.815 12.6558 41.4612 12.6558 41.0235C12.6558 40.5859 12.9701 40.2321 13.3589 40.2321H23.2019C23.5908 40.2321 23.9051 40.5859 23.9051 41.0235C23.9051 41.4612 23.5908 41.815 23.2019 41.815Z" fill="#D2DEDA"/>
<path d="M39.371 35.4895H29.542C29.1532 35.4895 28.8389 35.1357 28.8389 34.698C28.8389 34.2603 29.1532 33.9065 29.542 33.9065H39.371C39.7598 33.9065 40.0741 34.2603 40.0741 34.698C40.0741 35.1357 39.7598 35.4895 39.371 35.4895Z" fill="#D2DEDA"/>
<path d="M39.371 38.6522H29.542C29.1532 38.6522 28.8389 38.2984 28.8389 37.8607C28.8389 37.423 29.1532 37.0692 29.542 37.0692H39.371C39.7598 37.0692 40.0741 37.423 40.0741 37.8607C40.0741 38.2984 39.7598 38.6522 39.371 38.6522Z" fill="#D2DEDA"/>
<path d="M39.371 41.815H29.542C29.1532 41.815 28.8389 41.4612 28.8389 41.0235C28.8389 40.5859 29.1532 40.2321 29.542 40.2321H39.371C39.7598 40.2321 40.0741 40.5859 40.0741 41.0235C40.0741 41.4612 39.7598 41.815 39.371 41.815Z" fill="#D2DEDA"/>
<path d="M11.2482 26.0073C10.9993 26.0073 10.7581 25.8585 10.6301 25.595C10.4438 25.2119 10.5697 24.7307 10.9107 24.5217L26.3808 15.0238C26.7204 14.8141 27.1479 14.9558 27.3343 15.3396C27.5206 15.7227 27.3947 16.2039 27.0537 16.4129L11.5836 25.9108C11.4774 25.9765 11.3621 26.0073 11.2482 26.0073Z" fill="#D2DEDA"/>
<path d="M42.1843 26.0073C42.0704 26.0073 41.9551 25.9765 41.8482 25.9108L26.3809 16.4129C26.0399 16.2032 25.914 15.7227 26.1003 15.3396C26.2867 14.9558 26.7156 14.8141 27.0538 15.0238L42.5211 24.5217C42.8621 24.7315 42.988 25.2119 42.8017 25.595C42.6744 25.8577 42.4339 26.0073 42.1843 26.0073Z" fill="#D2DEDA"/>
<path d="M11.2482 22.8374C10.9993 22.8374 10.7581 22.6886 10.6301 22.4251C10.4438 22.042 10.5697 21.5608 10.9107 21.3518L26.3808 11.8539C26.7204 11.6442 27.1479 11.7858 27.3343 12.1697C27.5206 12.5528 27.3947 13.034 27.0537 13.243L11.5836 22.7409C11.4774 22.8066 11.3621 22.8374 11.2482 22.8374Z" fill="#D2DEDA"/>
<path d="M42.1843 22.8374C42.0704 22.8374 41.9551 22.8066 41.8482 22.7409L26.3809 13.243C26.0399 13.0332 25.914 12.5528 26.1003 12.1697C26.2867 11.7858 26.7156 11.6442 27.0538 11.8539L42.5211 21.3518C42.8621 21.5615 42.988 22.042 42.8017 22.4251C42.6744 22.6878 42.4339 22.8374 42.1843 22.8374Z" fill="#D2DEDA"/>
<path d="M11.2476 26.0073C10.8587 26.0073 10.5444 25.6535 10.5444 25.2158V22.0459C10.5444 21.6082 10.8587 21.2544 11.2476 21.2544C11.6364 21.2544 11.9507 21.6082 11.9507 22.0459V25.2158C11.9507 25.6535 11.6364 26.0073 11.2476 26.0073Z" fill="#D2DEDA"/>
<path d="M42.1851 26.0073C41.7962 26.0073 41.4819 25.6535 41.4819 25.2158V22.0459C41.4819 21.6082 41.7962 21.2544 42.1851 21.2544C42.5739 21.2544 42.8882 21.6082 42.8882 22.0459V25.2158C42.8882 25.6535 42.5739 26.0073 42.1851 26.0073Z" fill="#D2DEDA"/>
<path d="M29.5298 45H23.2017C22.8128 45 22.4985 44.6462 22.4985 44.2085V34.698C22.4985 34.2603 22.8128 33.9065 23.2017 33.9065H29.5298C29.9186 33.9065 30.2329 34.2603 30.2329 34.698V44.2085C30.2329 44.6462 29.9186 45 29.5298 45ZM23.9048 43.417H28.8267V35.4895H23.9048V43.417Z" fill="#D2DEDA"/>
<path d="M26.7188 29.1678C24.7802 29.1678 23.2031 27.3925 23.2031 25.2104C23.2031 23.0282 24.7802 21.2529 26.7188 21.2529C28.6573 21.2529 30.2344 23.0282 30.2344 25.2104C30.2344 27.3925 28.6573 29.1678 26.7188 29.1678ZM26.7188 22.8359C25.5558 22.8359 24.6094 23.9013 24.6094 25.2104C24.6094 26.5195 25.5558 27.5848 26.7188 27.5848C27.8817 27.5848 28.8281 26.5195 28.8281 25.2104C28.8281 23.9013 27.8817 22.8359 26.7188 22.8359Z" fill="#D2DEDA"/>
<path d="M26.7188 29.1678C26.3299 29.1678 26.0156 28.814 26.0156 28.3763V22.0444C26.0156 21.6067 26.3299 21.2529 26.7188 21.2529C27.1076 21.2529 27.4219 21.6067 27.4219 22.0444V28.3763C27.4219 28.814 27.1076 29.1678 26.7188 29.1678Z" fill="#D2DEDA"/>
</svg>
