<svg width="50" height="50" viewBox="0 0 50 50" fill="none" xmlns="http://www.w3.org/2000/svg">
<path d="M44.7178 13.7942C45.832 13.161 46.2305 11.737 45.4968 10.6863C42.3765 6.21784 37.8661 2.8724 32.6362 1.19477C26.6667 -0.720083 20.1958 -0.322322 14.5058 2.30922C8.81583 4.94076 4.3222 9.61399 1.91556 15.4027C-0.491074 21.1913 -0.635056 27.6729 1.51215 33.5628C3.65937 39.4526 7.94104 44.3208 13.5085 47.2024C19.076 50.084 25.523 50.7687 31.5715 49.1208C37.6201 47.473 42.8288 43.6128 46.1653 38.3053C49.0884 33.6554 50.3875 28.192 49.8998 22.7638C49.7852 21.4874 48.5637 20.654 47.3034 20.8865C46.0432 21.1189 45.224 22.3298 45.3116 23.6084C45.6049 27.8869 44.5397 32.1713 42.2363 35.8354C39.5192 40.1576 35.2774 43.3013 30.3516 44.6432C25.4259 45.9852 20.1757 45.4276 15.6417 43.0809C11.1077 40.7342 7.62087 36.7697 5.87225 31.9733C4.12363 27.1768 4.24089 21.8984 6.20077 17.1842C8.16066 12.4701 11.8201 8.66439 16.4539 6.52135C21.0876 4.37831 26.3573 4.05439 31.2186 5.61378C35.3398 6.93576 38.9124 9.52942 41.4416 12.9928C42.1974 14.0277 43.6037 14.4274 44.7178 13.7942Z" fill="#D2DEDA"/>
<path d="M33.1409 17.6037C32.9576 17.5899 32.7742 17.5828 32.636 17.5849C32.5803 17.5785 26.7572 17.1522 24.4258 24.8259C22.3879 31.5343 17.667 31.2357 17.4174 31.2176C17.3242 31.2176 17.2305 31.2156 17.1367 31.2112C13.808 31.0635 11.2 28.3354 11.2 25.0002C11.2 21.5719 13.989 18.7826 17.4174 18.7826C19.5426 18.7826 21.499 19.8513 22.6509 21.6416L23.6599 20.9924C22.2865 18.8572 19.9527 17.5825 17.4174 17.5825C13.3276 17.5826 10 20.9101 10 25.0002C10 28.979 13.1113 32.234 17.0828 32.41C17.1935 32.4147 17.3043 32.4173 17.364 32.4153C17.3699 32.4159 17.4402 32.4212 17.5633 32.4212C18.6103 32.4212 23.4877 32.0414 25.5742 25.1745C27.6121 18.4662 32.3342 18.765 32.5826 18.7826C32.7403 18.7826 32.8973 18.7887 33.052 18.8002C36.2753 19.0404 38.8 21.7636 38.8 25.0002C38.8 28.4286 36.011 31.2176 32.5826 31.2176C30.4574 31.2176 28.5015 30.1489 27.3496 28.3586L26.3407 29.0078C27.7141 31.143 30.0473 32.4177 32.5826 32.4177C36.6724 32.4177 40 29.0901 40 25.0003C40 21.1389 36.9871 17.8899 33.1409 17.6037Z" fill="#D2DEDA"/>
</svg>
