<svg width="35" height="35" viewBox="0 0 35 35" fill="none" xmlns="http://www.w3.org/2000/svg">
<g clip-path="url(#clip0)">
<path d="M23.2007 17.6792L35.0001 25.1385V9.90479L23.2007 17.6792Z" fill="#007A6F"/>
<path d="M0 9.90479V25.1385L11.7994 17.6792L0 9.90479Z" fill="#007A6F"/>
<path d="M32.8125 3.5H2.18755C1.09599 3.5 0.229736 4.43377 0.0656738 5.63613L17.5 18.8169L34.9344 5.63613C34.7703 4.43377 33.9041 3.5 32.8125 3.5Z" fill="#007A6F"/>
<path d="M21.197 19.0009L18.1016 21.1949C17.9179 21.3244 17.7101 21.3879 17.5001 21.3879C17.2901 21.3879 17.0823 21.3244 16.8985 21.1949L13.8032 18.9985L0.0700684 28.3465C0.238506 29.4647 1.10038 30.3334 2.18757 30.3334H32.8126C33.8998 30.3334 34.7616 29.4647 34.9301 28.3465L21.197 19.0009Z" fill="#007A6F"/>
</g>
<defs>
<clipPath id="clip0">
<rect width="35" height="35" fill="white"/>
</clipPath>
</defs>
</svg>
