<svg width="45" height="45" viewBox="0 0 45 45" fill="none" xmlns="http://www.w3.org/2000/svg">
<g clip-path="url(#clip0)">
<path d="M23.251 21.7501H21.751C21.3367 21.7501 21.001 22.0858 21.001 22.5C21.001 22.9143 21.3367 23.25 21.751 23.25H23.251C23.6652 23.25 24.001 22.9143 24.001 22.5C24.001 22.0858 23.6652 21.7501 23.251 21.7501Z" fill="#D2DEDA"/>
<path d="M20.2509 16.4999H17.2509C16.8367 16.4999 16.501 16.8357 16.501 17.2499C16.501 17.6641 16.8367 17.9999 17.2509 17.9999H18.0009V18.7499C18.0009 19.1641 18.3367 19.4998 18.7509 19.4998C19.1651 19.4998 19.5009 19.164 19.5009 18.7499V18H20.2508C20.6651 18 21.0008 17.6642 21.0008 17.25C21.0008 16.8358 20.6651 16.4999 20.2509 16.4999Z" fill="#D2DEDA"/>
<path d="M27.7509 16.4999H24.7509C24.3367 16.4999 24.001 16.8357 24.001 17.2499C24.001 17.6641 24.3367 17.9999 24.7509 17.9999H25.5009V18.7499C25.5009 19.1641 25.8367 19.4998 26.2509 19.4998C26.6651 19.4998 27.0009 19.164 27.0009 18.7499V18H27.7508C28.1651 18 28.5008 17.6642 28.5008 17.25C28.5008 16.8358 28.1651 16.4999 27.7509 16.4999Z" fill="#D2DEDA"/>
<path d="M24.0009 24.75H21.0009C20.5867 24.75 20.251 25.0857 20.251 25.5C20.251 25.9142 20.5867 26.2499 21.0009 26.2499H24.0009C24.4151 26.2499 24.7509 25.9142 24.7509 25.5C24.7509 25.0857 24.4151 24.75 24.0009 24.75Z" fill="#D2DEDA"/>
<path d="M40.591 42.0659L39.5928 38.9422C38.7476 36.6817 37.0406 34.8485 34.846 33.8446C34.8165 33.8279 34.7857 33.8134 34.754 33.8011C33.7744 33.3635 32.7251 33.1028 31.6546 33.0311C31.6047 33.0151 31.5532 33.0047 31.501 33C31.4693 33.0042 31.438 33.0105 31.4072 33.0189C31.2775 33.0135 31.1495 33 31.019 33H28.9691C28.5277 31.5524 28.44 30.02 28.7133 28.5315C28.807 27.7377 28.9407 26.9491 29.1138 26.1687C30.0428 25.152 30.6155 23.8606 30.7458 22.4896C30.8405 22.517 30.9381 22.5332 31.0365 22.5381C31.1733 22.538 31.3091 22.5155 31.4386 22.4715C31.8254 22.3426 33.0009 21.9508 33.0009 17.2501C33.0134 16.7424 32.9439 16.2359 32.7954 15.7501H34.5009V12.7501C34.498 11.7998 33.8973 10.9541 33.0009 10.6383V9C32.9948 5.10223 30.0066 1.85766 26.1226 1.53149C25.8165 0.619189 24.9633 0.00325195 24.001 0H20.5322C19.5492 0.00342773 18.6827 0.645908 18.3938 1.58555C14.7257 2.14172 12.0112 5.28996 12.001 9V10.6382C11.1046 10.9539 10.504 11.7996 10.501 12.75V15.75H12.2065C12.058 16.2357 11.9885 16.7422 12.001 17.25C12.001 21.9507 13.1766 22.3425 13.5633 22.4714C13.6928 22.5154 13.8286 22.5379 13.9654 22.5381C14.0638 22.5331 14.1614 22.5168 14.2561 22.4895C14.3862 23.8606 14.9591 25.1521 15.8882 26.1688C16.0616 26.9505 16.1952 27.7406 16.2886 28.5358C16.5617 30.0229 16.474 31.5538 16.0328 32.9999H13.983C13.8524 32.9999 13.7244 33.0135 13.5948 33.0188C13.564 33.0104 13.5327 33.0041 13.501 32.9999C13.4488 33.0046 13.3972 33.015 13.3473 33.0309C12.2768 33.1026 11.2275 33.3633 10.2479 33.801C10.2163 33.8133 10.1856 33.8278 10.1561 33.8444C7.94952 34.8535 6.23654 36.7009 5.39665 38.9773L4.41158 42.0652C4.18904 42.7491 4.31041 43.4984 4.73747 44.0771C5.15865 44.6601 5.8354 45.0038 6.55461 45H38.4472C39.6899 45.0001 40.6974 43.9928 40.6975 42.7501C40.6976 42.5179 40.6616 42.2871 40.591 42.0659ZM9.75102 43.5H6.5547C6.14065 43.5001 5.80491 43.1646 5.80482 42.7506C5.80482 42.6728 5.81686 42.5956 5.84059 42.5215L6.81398 39.468C7.19621 38.444 7.79475 37.5144 8.56889 36.7427C8.92994 36.3815 9.32598 36.057 9.75102 35.7739V43.5ZM12.751 43.5H11.251V35.0075C11.7359 34.823 12.2386 34.6886 12.751 34.6066V43.5ZM15.751 43.5H14.2509V34.5H15.751V43.5ZM31.501 17.25C31.501 19.5982 31.1743 20.6492 30.9875 20.9744C30.8692 20.8706 30.7616 20.7551 30.6666 20.6296C30.6231 19.1696 30.767 17.7102 31.0946 16.2869C31.1714 16.2271 31.2558 16.1778 31.3457 16.1404C31.4757 16.495 31.5286 16.8733 31.501 17.25ZM26.251 3.05209C29.2479 3.43204 31.4961 5.97911 31.501 9V10.5H26.251V3.05209ZM19.7822 2.25C19.7825 1.83595 20.1182 1.50029 20.5322 1.50003H24.001C24.415 1.50029 24.7507 1.83595 24.751 2.25V10.5H19.7822V2.25ZM13.501 9C13.5095 6.16017 15.5028 3.71303 18.2822 3.13022V10.5H13.501V9ZM12.001 14.25V12.7499C12.0013 12.3359 12.3369 12.0002 12.751 12H32.251C32.6651 12.0002 33.0007 12.3359 33.001 12.7499V14.25H12.001ZM14.3354 20.6294C14.2403 20.7549 14.1328 20.8705 14.0144 20.9744C13.8276 20.6492 13.501 19.5982 13.501 17.25C13.4734 16.8733 13.5264 16.495 13.6562 16.1404C13.7462 16.1785 13.8307 16.2282 13.9077 16.2883C14.2349 17.7112 14.3787 19.1701 14.3354 20.6294ZM15.751 22.44C15.751 22.2737 15.7575 22.1082 15.7707 21.9537C15.9662 19.8752 15.8147 17.7788 15.3224 15.7501H29.6796C29.1874 17.7771 29.0359 19.8718 29.2312 21.9486C29.2444 22.1083 29.251 22.2738 29.251 22.4401C29.251 23.8925 27.6821 25.963 24.8323 28.2716C23.4724 29.374 21.5263 29.373 20.1675 28.2694C17.3198 25.9629 15.751 23.8924 15.751 22.44ZM21.751 43.5H17.251V35.1898C17.5645 35.5522 17.8941 35.9773 18.1907 36.3611C19.2304 37.7082 20.3898 39.1961 21.751 39.6207V43.5ZM19.3779 35.4448C18.8382 34.6732 18.2093 33.968 17.5042 33.3438C17.9663 31.7248 18.0599 30.0229 17.7783 28.363C17.7704 28.293 17.7565 28.2197 17.7479 28.1493C18.2009 28.5696 18.6814 28.9954 19.2219 29.4331C21.1321 30.983 23.8666 30.984 25.7779 29.4353C26.319 28.997 26.8 28.5707 27.2536 28.1499C27.2451 28.2185 27.2314 28.2903 27.2237 28.3585C26.9419 30.0199 27.0356 31.7232 27.4978 33.3437C26.7927 33.9679 26.1638 34.673 25.6241 35.4447C24.6595 36.6943 23.459 38.25 22.501 38.25C21.5429 38.25 20.3425 36.6943 19.3779 35.4448ZM27.751 43.5H23.251V39.6207C24.6123 39.1961 25.7716 37.7082 26.8113 36.3611C27.1079 35.9773 27.4375 35.5522 27.751 35.1898V43.5ZM30.751 43.5H29.251V34.5H30.751V43.5ZM33.751 43.5H32.2509V34.6067C32.7633 34.6887 33.266 34.823 33.751 35.0075V43.5ZM38.6748 43.4646C38.6012 43.488 38.5245 43.5 38.4472 43.5H35.2509V35.7739C35.6759 36.057 36.0719 36.3814 36.433 36.7426C37.1992 37.5047 37.7933 38.422 38.1755 39.4327L39.162 42.5221C39.2878 42.9171 39.0697 43.339 38.6748 43.4646Z" fill="#D2DEDA"/>
</g>
<defs>
<clipPath id="clip0">
<rect width="45" height="45" fill="white"/>
</clipPath>
</defs>
</svg>
