<svg width="50" height="50" viewBox="0 0 50 50" fill="none" xmlns="http://www.w3.org/2000/svg">
<line x1="18.1439" y1="33.9319" x2="31.154" y2="16.8561" stroke="#D2DEDA" stroke-width="2" stroke-linecap="round"/>
<path d="M21.8889 18.4444C21.8889 20.899 19.899 22.8889 17.4444 22.8889C14.9898 22.8889 13 20.899 13 18.4444C13 15.9898 14.9898 14 17.4444 14C19.899 14 21.8889 15.9898 21.8889 18.4444ZM15.206 18.4444C15.206 19.6807 16.2082 20.6829 17.4444 20.6829C18.6807 20.6829 19.6829 19.6807 19.6829 18.4444C19.6829 17.2082 18.6807 16.206 17.4444 16.206C16.2082 16.206 15.206 17.2082 15.206 18.4444Z" fill="#D2DEDA"/>
<path d="M37 31.7778C37 34.2324 35.0101 36.2222 32.5555 36.2222C30.1009 36.2222 28.1111 34.2324 28.1111 31.7778C28.1111 29.3232 30.1009 27.3333 32.5555 27.3333C35.0101 27.3333 37 29.3232 37 31.7778ZM30.3171 31.7778C30.3171 33.014 31.3193 34.0162 32.5555 34.0162C33.7918 34.0162 34.794 33.014 34.794 31.7778C34.794 30.5415 33.7918 29.5393 32.5555 29.5393C31.3193 29.5393 30.3171 30.5415 30.3171 31.7778Z" fill="#D2DEDA"/>
<path d="M43.7155 37.81C44.773 38.5338 46.2276 38.2677 46.8503 37.1477C49.4987 32.3843 50.5283 26.8638 49.7435 21.4278C48.8477 15.2231 45.6535 9.58139 40.794 5.62088C35.9344 1.66036 29.7643 -0.329868 23.5065 0.044653C17.2486 0.419174 11.3599 3.13111 7.00742 7.64295C2.65495 12.1548 0.156437 18.1372 0.00709473 24.4044C-0.142247 30.6717 2.06848 36.7663 6.20111 41.4803C10.3337 46.1944 16.0866 49.1837 22.3195 49.8559C27.7802 50.4448 33.2602 49.2174 37.9252 46.3996C39.0222 45.737 39.2358 44.2738 38.4744 43.2429C37.713 42.2121 36.2656 42.0067 35.1548 42.6459C31.4379 44.785 27.1202 45.7059 22.8171 45.2418C17.7412 44.6945 13.0563 42.26 9.69079 38.4211C6.32531 34.5821 4.52496 29.6188 4.64658 24.515C4.7682 19.4112 6.80291 14.5393 10.3474 10.865C13.8919 7.19068 18.6875 4.98216 23.7837 4.67716C28.8799 4.37217 33.9047 5.99295 37.8621 9.21826C41.8196 12.4436 44.4208 17.038 45.1503 22.0909C45.7687 26.3745 45.0037 30.7225 42.9995 34.514C42.4006 35.647 42.658 37.0861 43.7155 37.81Z" fill="#D2DEDA"/>
</svg>
