<svg width="46" height="45" viewBox="0 0 46 45" fill="none" xmlns="http://www.w3.org/2000/svg">
<g clip-path="url(#clip0)">
<path d="M43.9863 45H22.4238C21.6476 45 21.0176 44.37 21.0176 43.5938V29.5312C21.0176 28.755 21.6476 28.125 22.4238 28.125H43.9863C44.7626 28.125 45.3926 28.755 45.3926 29.5312V43.5938C45.3926 44.37 44.7626 45 43.9863 45ZM23.8301 42.1875H42.5801V30.9375H23.8301V42.1875Z" fill="#D2DEDA"/>
<path d="M28.9863 38.4375C28.2101 38.4375 27.5801 37.8075 27.5801 37.0312V29.5312C27.5801 28.755 28.2101 28.125 28.9863 28.125C29.7626 28.125 30.3926 28.755 30.3926 29.5312V37.0312C30.3926 37.8075 29.7626 38.4375 28.9863 38.4375Z" fill="#D2DEDA"/>
<path d="M37.4238 38.4375C36.6476 38.4375 36.0176 37.8075 36.0176 37.0312V29.5312C36.0176 28.755 36.6476 28.125 37.4238 28.125C38.2001 28.125 38.8301 28.755 38.8301 29.5312V37.0312C38.8301 37.8075 38.2001 38.4375 37.4238 38.4375Z" fill="#D2DEDA"/>
<path d="M33.2051 45C32.4288 45 31.7988 44.37 31.7988 43.5937V37.0312C31.7988 36.255 32.4288 35.625 33.2051 35.625C33.9813 35.625 34.6113 36.255 34.6113 37.0312V43.5937C34.6113 44.37 33.9813 45 33.2051 45Z" fill="#D2DEDA"/>
<path d="M43.9863 38.4375H22.4238C21.6476 38.4375 21.0176 37.8075 21.0176 37.0312C21.0176 36.255 21.6476 35.625 22.4238 35.625H43.9863C44.7626 35.625 45.3926 36.255 45.3926 37.0312C45.3926 37.8075 44.7626 38.4375 43.9863 38.4375Z" fill="#D2DEDA"/>
<path d="M15.8613 39.2625C15.7413 39.2625 15.6213 39.2475 15.4995 39.2156C12.9776 38.5463 0.392578 34.4044 0.392578 18.6188V7.03125C0.392578 6.45 0.748828 5.92875 1.2907 5.72063L15.822 0.095625C16.1482 -0.031875 16.5101 -0.031875 16.8363 0.095625L31.3676 5.72063C31.9113 5.92875 32.2676 6.45 32.2676 7.03125V18.6188C32.2676 20.2331 32.1345 21.7838 31.8701 23.2238C31.7295 23.9869 30.9926 24.4988 30.2332 24.3525C29.4682 24.2138 28.9638 23.4788 29.1026 22.7156C29.337 21.4425 29.4551 20.0625 29.4551 18.6188V7.995L16.3301 2.91563L3.20508 7.995V18.6188C3.20508 32.0006 13.1688 35.6888 16.2213 36.4988C16.9713 36.6975 17.4195 37.4681 17.2207 38.2181C17.0538 38.8481 16.4838 39.2625 15.8613 39.2625Z" fill="#D2DEDA"/>
<line x1="2.89258" y1="13.25" x2="14.3926" y2="13.25" stroke="#D2DEDA" stroke-width="2" stroke-linecap="round"/>
<line x1="18.6426" y1="18.5" x2="30.1426" y2="18.5" stroke="#D2DEDA" stroke-width="2" stroke-linecap="round"/>
</g>
<defs>
<clipPath id="clip0">
<rect width="45" height="45" fill="white" transform="translate(0.392578)"/>
</clipPath>
</defs>
</svg>
