<svg width="40" height="21" viewBox="0 0 40 21" fill="none" xmlns="http://www.w3.org/2000/svg">
<path d="M39.6435 18.3484C39.536 18.1862 38.8709 16.8836 35.6707 14.2064C32.3204 11.403 32.7705 11.8583 36.8058 7.01092C39.2634 4.0588 40.246 2.25597 39.9385 1.48527C39.646 0.750616 37.8383 0.944419 37.8383 0.944419L31.8279 0.975969C31.8279 0.975969 31.3829 0.921884 31.0503 1.09991C30.7278 1.27569 30.5203 1.68132 30.5203 1.68132C30.5203 1.68132 29.5677 3.9664 28.2976 5.90894C25.6199 10.0081 24.5474 10.2244 24.1098 9.9698C23.0923 9.37712 23.3473 7.58557 23.3473 6.31458C23.3473 2.34161 24.0148 0.685264 22.0447 0.257093C21.3896 0.115121 20.9096 0.0204727 19.237 0.00469796C17.0918 -0.0155838 15.2742 0.0114585 14.2466 0.464418C13.5616 0.766391 13.034 1.4402 13.3565 1.47851C13.7541 1.52583 14.6541 1.6971 15.1317 2.28302C15.7492 3.03795 15.7267 4.73711 15.7267 4.73711C15.7267 4.73711 16.0817 9.41318 14.8992 9.99459C14.0866 10.3935 12.974 9.57994 10.5863 5.85936C9.36374 3.95513 8.43868 1.84808 8.43868 1.84808C8.43868 1.84808 8.26116 1.45597 7.94364 1.24639C7.55861 0.991744 7.01857 0.910617 7.01857 0.910617L1.30315 0.942166C1.30315 0.942166 0.445591 0.964702 0.130568 1.30048C-0.149453 1.6002 0.108066 2.21766 0.108066 2.21766C0.108066 2.21766 4.5834 11.6532 9.64877 16.4104C14.2966 20.771 19.572 20.4848 19.572 20.4848H21.9622C21.9622 20.4848 22.6847 20.4127 23.0523 20.0543C23.3923 19.7253 23.3798 19.1079 23.3798 19.1079C23.3798 19.1079 23.3323 16.2166 24.8224 15.7907C26.29 15.3715 28.1751 18.585 30.1728 19.8222C31.6829 20.7574 32.8305 20.5524 32.8305 20.5524L38.1734 20.4848C38.1734 20.4848 40.9686 20.3293 39.6435 18.3484Z" fill="#007A6F"/>
</svg>
