<svg width="45" height="45" viewBox="0 0 45 45" fill="none" xmlns="http://www.w3.org/2000/svg">
<g clip-path="url(#clip0)">
<path d="M10.5518 28.826C10.1629 28.826 9.84863 28.5118 9.84863 28.1229C9.84863 27.3467 9.21793 26.7153 8.44238 26.7153C7.66684 26.7153 7.03613 27.3467 7.03613 28.1229C7.03613 28.5118 6.72184 28.826 6.33301 28.826C5.94418 28.826 5.62988 28.5118 5.62988 28.1229C5.62988 26.5711 6.89129 25.309 8.44238 25.309C9.99348 25.309 11.2549 26.5711 11.2549 28.1229C11.2549 28.5118 10.9406 28.826 10.5518 28.826Z" fill="#D2DEDA"/>
<path d="M8.44238 35.8601C6.89129 35.8601 5.62988 34.5987 5.62988 33.0476C5.62988 32.6588 5.94418 32.3445 6.33301 32.3445C6.72184 32.3445 7.03613 32.6588 7.03613 33.0476C7.03613 33.8232 7.66684 34.4539 8.44238 34.4539C9.21793 34.4539 9.84863 33.8232 9.84863 33.0476C9.84863 32.6588 10.1629 32.3445 10.5518 32.3445C10.9406 32.3445 11.2549 32.6588 11.2549 33.0476C11.2549 34.5987 9.99348 35.8601 8.44238 35.8601Z" fill="#D2DEDA"/>
<path d="M6.33301 33.7507C5.94418 33.7507 5.62988 33.4364 5.62988 33.0476V28.1229C5.62988 27.7341 5.94418 27.4198 6.33301 27.4198C6.72184 27.4198 7.03613 27.7341 7.03613 28.1229V33.0476C7.03613 33.4364 6.72184 33.7507 6.33301 33.7507Z" fill="#D2DEDA"/>
<path d="M10.5518 33.7507C10.1629 33.7507 9.84863 33.4364 9.84863 33.0476V28.1229C9.84863 27.7341 10.1629 27.4198 10.5518 27.4198C10.9406 27.4198 11.2549 27.7341 11.2549 28.1229V33.0476C11.2549 33.4364 10.9406 33.7507 10.5518 33.7507Z" fill="#D2DEDA"/>
<path d="M38.6655 28.826C38.2767 28.826 37.9624 28.5118 37.9624 28.1229C37.9624 27.3467 37.3317 26.7153 36.5562 26.7153C36.1673 26.7153 35.853 26.401 35.853 26.0121C35.853 25.6233 36.1673 25.309 36.5562 25.309C38.1072 25.309 39.3687 26.5711 39.3687 28.1229C39.3687 28.5118 39.0544 28.826 38.6655 28.826Z" fill="#D2DEDA"/>
<path d="M36.5562 35.8601C36.1673 35.8601 35.853 35.5458 35.853 35.157C35.853 34.7682 36.1673 34.4539 36.5562 34.4539C37.3317 34.4539 37.9624 33.8232 37.9624 33.0476C37.9624 32.6588 38.2767 32.3445 38.6655 32.3445C39.0544 32.3445 39.3687 32.6588 39.3687 33.0476C39.3687 34.5987 38.1072 35.8601 36.5562 35.8601Z" fill="#D2DEDA"/>
<path d="M38.6655 33.7507C38.2767 33.7507 37.9624 33.4364 37.9624 33.0476V28.1229C37.9624 27.7341 38.2767 27.4198 38.6655 27.4198C39.0544 27.4198 39.3687 27.7341 39.3687 28.1229V33.0476C39.3687 33.4364 39.0544 33.7507 38.6655 33.7507Z" fill="#D2DEDA"/>
<path d="M36.5561 26.7153H8.44238C8.05355 26.7153 7.73926 26.401 7.73926 26.0121C7.73926 25.6233 8.05355 25.309 8.44238 25.309H36.5561C36.945 25.309 37.2593 25.6233 37.2593 26.0121C37.2593 26.401 36.945 26.7153 36.5561 26.7153Z" fill="#D2DEDA"/>
<path d="M38.6681 35.8601H9.146C8.75717 35.8601 8.44287 35.5458 8.44287 35.157C8.44287 34.7682 8.75717 34.4539 9.146 34.4539H38.6681C39.0569 34.4539 39.3712 34.7682 39.3712 35.157C39.3712 35.5458 39.0569 35.8601 38.6681 35.8601Z" fill="#D2DEDA"/>
<path d="M23.2038 30.2351H10.5518C10.1629 30.2351 9.84863 29.9208 9.84863 29.532C9.84863 29.1432 10.1629 28.8289 10.5518 28.8289H23.2038C23.5926 28.8289 23.9069 29.1432 23.9069 29.532C23.9069 29.9208 23.5926 30.2351 23.2038 30.2351Z" fill="#D2DEDA"/>
<path d="M38.6655 32.3445H28.8218C28.4329 32.3445 28.1187 32.0302 28.1187 31.6414C28.1187 31.2525 28.4329 30.9382 28.8218 30.9382H38.6655C39.0544 30.9382 39.3687 31.2525 39.3687 31.6414C39.3687 32.0302 39.0544 32.3445 38.6655 32.3445Z" fill="#D2DEDA"/>
<path d="M8.44092 37.9709C8.05209 37.9709 7.73779 37.6566 7.73779 37.2678C7.73779 36.4922 7.10709 35.8615 6.33154 35.8615C5.556 35.8615 4.92529 36.4922 4.92529 37.2678C4.92529 37.6566 4.611 37.9709 4.22217 37.9709C3.83334 37.9709 3.51904 37.6566 3.51904 37.2678C3.51904 35.7167 4.78045 34.4553 6.33154 34.4553C7.88264 34.4553 9.14404 35.7167 9.14404 37.2678C9.14404 37.6566 8.82975 37.9709 8.44092 37.9709Z" fill="#D2DEDA"/>
<path d="M6.33154 45.0034C4.78045 45.0034 3.51904 43.7421 3.51904 42.191C3.51904 41.8021 3.83334 41.4879 4.22217 41.4879C4.611 41.4879 4.92529 41.8021 4.92529 42.191C4.92529 42.9665 5.556 43.5972 6.33154 43.5972C7.10709 43.5972 7.73779 42.9665 7.73779 42.191C7.73779 41.8021 8.05209 41.4879 8.44092 41.4879C8.82975 41.4879 9.14404 41.8021 9.14404 42.191C9.14404 43.7421 7.88264 45.0034 6.33154 45.0034Z" fill="#D2DEDA"/>
<path d="M4.22217 42.8942C3.83334 42.8942 3.51904 42.5799 3.51904 42.191V37.2678C3.51904 36.8789 3.83334 36.5646 4.22217 36.5646C4.611 36.5646 4.92529 36.8789 4.92529 37.2678V42.191C4.92529 42.5799 4.611 42.8942 4.22217 42.8942Z" fill="#D2DEDA"/>
<path d="M8.44092 42.8942C8.05209 42.8942 7.73779 42.5799 7.73779 42.191V37.2678C7.73779 36.8789 8.05209 36.5646 8.44092 36.5646C8.82975 36.5646 9.14404 36.8789 9.14404 37.2678V42.191C9.14404 42.5799 8.82975 42.8942 8.44092 42.8942Z" fill="#D2DEDA"/>
<path d="M12.6577 37.9709C12.2689 37.9709 11.9546 37.6566 11.9546 37.2678C11.9546 36.4922 11.3239 35.8615 10.5483 35.8615C9.7728 35.8615 9.14209 36.4922 9.14209 37.2678C9.14209 37.6566 8.82779 37.9709 8.43897 37.9709C8.05014 37.9709 7.73584 37.6566 7.73584 37.2678C7.73584 35.7167 8.99725 34.4553 10.5483 34.4553C12.0994 34.4553 13.3608 35.7167 13.3608 37.2678C13.3608 37.6566 13.0466 37.9709 12.6577 37.9709Z" fill="#D2DEDA"/>
<path d="M10.5483 45.0034C8.99725 45.0034 7.73584 43.7421 7.73584 42.191C7.73584 41.8021 8.05014 41.4879 8.43897 41.4879C8.82779 41.4879 9.14209 41.8021 9.14209 42.191C9.14209 42.9665 9.7728 43.5972 10.5483 43.5972C11.3239 43.5972 11.9546 42.9665 11.9546 42.191C11.9546 41.8021 12.2689 41.4879 12.6577 41.4879C13.0466 41.4879 13.3608 41.8021 13.3608 42.191C13.3608 43.7421 12.0994 45.0034 10.5483 45.0034Z" fill="#D2DEDA"/>
<path d="M8.43897 42.8942C8.05014 42.8942 7.73584 42.5799 7.73584 42.191V37.2678C7.73584 36.8789 8.05014 36.5646 8.43897 36.5646C8.82779 36.5646 9.14209 36.8789 9.14209 37.2678V42.191C9.14209 42.5799 8.82779 42.8942 8.43897 42.8942Z" fill="#D2DEDA"/>
<path d="M12.6577 42.8942C12.2689 42.8942 11.9546 42.5799 11.9546 42.191V37.2678C11.9546 36.8789 12.2689 36.5646 12.6577 36.5646C13.0465 36.5646 13.3608 36.8789 13.3608 37.2678V42.191C13.3608 42.5799 13.0465 42.8942 12.6577 42.8942Z" fill="#D2DEDA"/>
<path d="M40.7778 37.9709C40.389 37.9709 40.0747 37.6566 40.0747 37.2678C40.0747 36.4922 39.444 35.8615 38.6685 35.8615C38.2796 35.8615 37.9653 35.5472 37.9653 35.1584C37.9653 34.7696 38.2796 34.4553 38.6685 34.4553C40.2196 34.4553 41.481 35.7167 41.481 37.2678C41.481 37.6566 41.1667 37.9709 40.7778 37.9709Z" fill="#D2DEDA"/>
<path d="M38.6685 45.0034C38.2796 45.0034 37.9653 44.6892 37.9653 44.3003C37.9653 43.9115 38.2796 43.5972 38.6685 43.5972C39.444 43.5972 40.0747 42.9665 40.0747 42.191C40.0747 41.8021 40.389 41.4879 40.7778 41.4879C41.1667 41.4879 41.481 41.8021 41.481 42.191C41.481 43.7421 40.2196 45.0034 38.6685 45.0034Z" fill="#D2DEDA"/>
<path d="M40.7778 42.8942C40.389 42.8942 40.0747 42.5799 40.0747 42.191V37.2678C40.0747 36.8789 40.389 36.5646 40.7778 36.5646C41.1667 36.5646 41.481 36.8789 41.481 37.2678V42.191C41.481 42.5799 41.1667 42.8942 40.7778 42.8942Z" fill="#D2DEDA"/>
<path d="M34.4453 35.8615H6.33154C5.94271 35.8615 5.62842 35.5472 5.62842 35.1584C5.62842 34.7696 5.94271 34.4553 6.33154 34.4553H34.4453C34.8341 34.4553 35.1484 34.7696 35.1484 35.1584C35.1484 35.5472 34.8341 35.8615 34.4453 35.8615Z" fill="#D2DEDA"/>
<path d="M38.6683 45.0034H6.33154C5.94271 45.0034 5.62842 44.6892 5.62842 44.3003C5.62842 43.9115 5.94271 43.5972 6.33154 43.5972H38.6683C39.0571 43.5972 39.3714 43.9115 39.3714 44.3003C39.3714 44.6892 39.0571 45.0034 38.6683 45.0034Z" fill="#D2DEDA"/>
<path d="M40.7773 41.4879H30.9336C30.5448 41.4879 30.2305 41.1736 30.2305 40.7847C30.2305 40.3959 30.5448 40.0816 30.9336 40.0816H40.7773C41.1662 40.0816 41.4805 40.3959 41.4805 40.7847C41.4805 41.1736 41.1662 41.4879 40.7773 41.4879Z" fill="#D2DEDA"/>
<path d="M19.6869 39.3799H12.6577C12.2689 39.3799 11.9546 39.0656 11.9546 38.6768C11.9546 38.2879 12.2689 37.9736 12.6577 37.9736H19.6869C20.0757 37.9736 20.39 38.2879 20.39 38.6768C20.39 39.0656 20.0757 39.3799 19.6869 39.3799Z" fill="#D2DEDA"/>
<path d="M16.8893 21.6935C16.7093 21.6935 16.5293 21.6246 16.3922 21.4875C16.1173 21.2126 16.1173 20.7675 16.3922 20.4933L19.8713 17.0149C20.1462 16.74 20.5906 16.74 20.8655 17.0149C21.1404 17.2898 21.1404 17.7349 20.8655 18.0091L17.3864 21.4875C17.2493 21.6246 17.0693 21.6935 16.8893 21.6935Z" fill="#D2DEDA"/>
<path d="M12.9138 16.7217C12.7338 16.7217 12.5538 16.6528 12.4166 16.5164C12.1417 16.2415 12.1417 15.7964 12.4166 15.5215L14.898 13.0388C15.1729 12.7638 15.6173 12.7645 15.8922 13.0388C16.1671 13.3137 16.1671 13.7588 15.8922 14.0337L13.4109 16.5164C13.2738 16.6535 13.0938 16.7217 12.9138 16.7217Z" fill="#D2DEDA"/>
<path d="M20.6154 26.7138C20.4002 26.7138 20.1886 26.6153 20.05 26.4297L16.3235 21.4094C16.0922 21.0972 16.1575 20.6571 16.469 20.4257C16.7798 20.1944 17.22 20.2591 17.452 20.5713L21.1786 25.5923C21.4099 25.9038 21.3445 26.3439 21.033 26.5753C20.9079 26.6688 20.7609 26.7138 20.6154 26.7138Z" fill="#D2DEDA"/>
<path d="M28.5346 21.0586C28.4579 21.0586 28.3799 21.046 28.3032 21.0192L20.1378 18.1758C19.7715 18.0478 19.5775 17.6477 19.7054 17.2807C19.8334 16.9137 20.2335 16.7203 20.6005 16.8476L28.7659 19.691C29.1322 19.819 29.3263 20.2191 29.1983 20.5861C29.0978 20.8765 28.8257 21.0586 28.5346 21.0586Z" fill="#D2DEDA"/>
<path d="M19.8698 17.716C19.6898 17.716 19.5098 17.6471 19.3727 17.51C19.0978 17.235 19.0978 16.79 19.3727 16.5157L32.7918 3.10011C33.0668 2.82519 33.5111 2.82519 33.7861 3.10011C34.061 3.37503 34.061 3.82011 33.7861 4.09433L20.3669 17.51C20.2291 17.6478 20.0498 17.716 19.8698 17.716Z" fill="#D2DEDA"/>
<path d="M16.3923 14.2404C16.2123 14.2404 16.0323 14.1715 15.8952 14.0344C15.6202 13.7601 15.6202 13.3151 15.8952 13.0401L18.9629 9.97169C19.2378 9.69677 19.6822 9.69677 19.9571 9.97169C20.232 10.2459 20.232 10.691 19.9571 10.9659L16.8894 14.0344C16.7523 14.1715 16.5723 14.2404 16.3923 14.2404Z" fill="#D2DEDA"/>
<path d="M20.4535 11.5777C19.9114 11.5777 19.3686 11.3723 18.9552 10.961C18.6795 10.6868 18.6781 10.2417 18.9523 9.96608C19.2266 9.69116 19.6709 9.69046 19.9466 9.96398C20.2264 10.2424 20.6806 10.2424 20.9605 9.96327C21.2354 9.68835 21.6798 9.68835 21.9547 9.96327C22.2296 10.2382 22.2296 10.6826 21.9547 10.9575C21.542 11.3709 20.997 11.5777 20.4535 11.5777Z" fill="#D2DEDA"/>
<path d="M21.4582 11.1635C21.2782 11.1635 21.0982 11.0946 20.9611 10.9575C20.6862 10.6833 20.6862 10.2382 20.9611 9.96327L30.307 0.614517C30.5819 0.339595 31.0263 0.339595 31.3012 0.614517C31.5761 0.888735 31.5761 1.33381 31.3012 1.60874L21.9553 10.9575C21.8175 11.0946 21.6375 11.1635 21.4582 11.1635Z" fill="#D2DEDA"/>
<path d="M33.2892 4.30032C33.1092 4.30032 32.9292 4.23142 32.7921 4.09431C32.5172 3.81938 32.5172 3.37501 32.7921 3.10009C33.0671 2.82517 33.0671 2.37938 32.7921 2.10446C32.5172 1.82954 32.5172 1.38517 32.7921 1.11024C33.0671 0.835322 33.5114 0.835322 33.7863 1.11024C34.609 1.9329 34.609 3.27165 33.7863 4.09431C33.6485 4.23212 33.4692 4.30032 33.2892 4.30032Z" fill="#D2DEDA"/>
<path d="M32.794 1.81513C32.614 1.81513 32.434 1.74623 32.2969 1.60912C32.0227 1.3356 31.5776 1.3349 31.302 1.60912C31.027 1.88404 30.5827 1.88404 30.3078 1.60912C30.0328 1.33419 30.0328 0.889819 30.3078 0.614897C31.1304 -0.207759 32.4684 -0.207056 33.2911 0.614897C33.566 0.889819 33.566 1.33419 33.2911 1.60912C33.1533 1.74623 32.9733 1.81513 32.794 1.81513Z" fill="#D2DEDA"/>
<path d="M33.2892 2.31047C33.1092 2.31047 32.9285 2.24156 32.7914 2.10445L32.2964 1.60875C32.0222 1.33383 32.0222 0.88875 32.2971 0.614531C32.572 0.340313 33.0171 0.339609 33.292 0.615234L33.787 1.11094C34.0612 1.38586 34.0612 1.83094 33.7863 2.10516C33.6485 2.24156 33.4692 2.31047 33.2892 2.31047Z" fill="#D2DEDA"/>
<path d="M15.4002 14.2397C15.2188 14.2397 15.0381 14.1708 14.901 14.0337C14.626 13.7587 14.6232 13.3137 14.8981 13.0387C15.4459 12.4903 16.3403 12.491 16.8894 13.0373C17.165 13.3116 17.1664 13.7566 16.8922 14.0323C16.6187 14.3079 16.1743 14.3086 15.898 14.0344C15.7609 14.1715 15.5802 14.2397 15.4002 14.2397Z" fill="#D2DEDA"/>
<path d="M20.3694 18.2145C20.1894 18.2145 20.0094 18.1455 19.8723 18.0091L15.8961 14.0351C15.6212 13.7602 15.6212 13.3151 15.8961 13.0402C16.1711 12.7652 16.6154 12.7659 16.8904 13.0402L20.8665 17.0142C21.1414 17.2891 21.1414 17.7342 20.8665 18.0091C20.7287 18.1462 20.5494 18.2145 20.3694 18.2145Z" fill="#D2DEDA"/>
<path d="M12.9126 17.7173C12.7326 17.7173 12.5526 17.6484 12.4155 17.5106C12.149 17.2441 12.0027 16.8897 12.0034 16.5136C12.0041 16.1381 12.1518 15.7851 12.4183 15.52C12.6939 15.2465 13.1383 15.2472 13.4125 15.5221C13.6867 15.7978 13.6853 16.2429 13.4097 16.5171L13.409 16.5178C13.6839 16.7927 13.6839 17.2378 13.409 17.512C13.2719 17.6491 13.0926 17.7173 12.9126 17.7173Z" fill="#D2DEDA"/>
<path d="M16.8894 21.6935C16.7094 21.6935 16.5294 21.6246 16.3923 21.4875L12.4162 17.5121C12.1412 17.2378 12.1412 16.7928 12.4162 16.5178C12.6911 16.2429 13.1354 16.2429 13.4104 16.5178L17.3865 20.4933C17.6615 20.7675 17.6615 21.2126 17.3865 21.4875C17.2494 21.6246 17.0694 21.6935 16.8894 21.6935Z" fill="#D2DEDA"/>
<path d="M24.787 26.6927C24.5936 26.6927 24.401 26.6132 24.2618 26.4571C24.0037 26.1675 24.0297 25.7231 24.3194 25.4643C24.498 25.3047 24.6738 25.1395 24.8453 24.9679C26.2256 23.587 27.243 21.9586 27.8695 20.1276C27.9961 19.7606 28.3954 19.5651 28.7632 19.6896C29.1302 19.8154 29.3264 20.2155 29.2005 20.5825C28.5037 22.6188 27.3731 24.4279 25.8403 25.9621C25.6497 26.1527 25.4543 26.3376 25.2553 26.5148C25.121 26.6336 24.9536 26.6927 24.787 26.6927Z" fill="#D2DEDA"/>
<path d="M21.0935 26.7012C20.8397 26.7012 20.5943 26.5634 20.4691 26.3222C20.2898 25.9784 20.4241 25.553 20.7687 25.3744C21.7172 24.8808 22.5869 24.2424 23.3548 23.476C24.5065 22.3228 25.3559 20.9616 25.8776 19.4323C26.0027 19.0652 26.4028 18.8691 26.7705 18.9935C27.1376 19.1187 27.3344 19.5188 27.2086 19.8858C26.6166 21.6211 25.6547 23.1638 24.349 24.4709C23.4799 25.3385 22.4934 26.0628 21.4177 26.6217C21.3136 26.6752 21.2025 26.7012 21.0935 26.7012Z" fill="#D2DEDA"/>
</g>
<defs>
<clipPath id="clip0">
<rect width="45" height="45" fill="white"/>
</clipPath>
</defs>
</svg>
