<svg width="127" height="39" fill="none" xmlns="http://www.w3.org/2000/svg"><path d="M46 20.073L23.5 8 1 20.073V38h45V20.073z" stroke="#D2DEDA"/><path stroke="#007A6F" d="M32.5 21v14M23.5 13v22M28 17v18M36.5 25v10M41 29v6"/><path d="M55.549 32.128h.026l2.158-7.332h1.417l2.145 7.332h.026l2.028-7.332h1.365L62.01 34h-1.339l-2.236-7.397h-.026L56.173 34h-1.339l-2.704-9.204h1.391l2.028 7.332zm16.122-1.222c0 .477-.087.914-.26 1.313a3.062 3.062 0 01-.702 1.04 3.231 3.231 0 01-1.053.676 3.64 3.64 0 01-1.313.234 3.64 3.64 0 01-1.313-.234 3.233 3.233 0 01-1.053-.676 3.337 3.337 0 01-.702-1.04 3.408 3.408 0 01-.247-1.313c0-.477.082-.91.247-1.3.173-.399.407-.741.702-1.027a3.067 3.067 0 011.053-.663 3.47 3.47 0 011.313-.247c.468 0 .906.082 1.313.247.407.156.758.377 1.053.663.303.286.537.628.702 1.027.173.39.26.823.26 1.3zm-1.274 0c0-.295-.048-.576-.143-.845a1.982 1.982 0 00-1.04-1.196 1.98 1.98 0 00-.871-.182c-.33 0-.624.06-.884.182a1.885 1.885 0 00-.637.494c-.173.2-.308.433-.403.702-.087.269-.13.55-.13.845 0 .295.043.576.13.845.095.269.23.507.403.715.173.208.386.373.637.494.26.121.555.182.884.182.33 0 .62-.06.87-.182.26-.121.478-.286.65-.494a2.12 2.12 0 00.39-.715c.096-.269.144-.55.144-.845zm9.209 0c0 .477-.087.914-.26 1.313a3.065 3.065 0 01-.703 1.04 3.233 3.233 0 01-1.052.676 3.64 3.64 0 01-1.313.234 3.64 3.64 0 01-1.314-.234 3.233 3.233 0 01-1.052-.676 3.334 3.334 0 01-.703-1.04 3.406 3.406 0 01-.246-1.313c0-.477.082-.91.247-1.3.173-.399.407-.741.702-1.027a3.067 3.067 0 011.052-.663 3.47 3.47 0 011.314-.247c.468 0 .905.082 1.313.247.407.156.758.377 1.053.663.303.286.537.628.701 1.027.174.39.26.823.26 1.3zm-1.274 0c0-.295-.048-.576-.143-.845a1.985 1.985 0 00-1.04-1.196 1.981 1.981 0 00-.871-.182c-.33 0-.625.06-.885.182a1.884 1.884 0 00-.636.494c-.174.2-.308.433-.404.702-.086.269-.13.55-.13.845 0 .295.044.576.13.845.096.269.23.507.404.715.173.208.385.373.636.494.26.121.555.182.885.182.329 0 .62-.06.87-.182.26-.121.477-.286.65-.494.174-.208.304-.446.39-.715.096-.269.144-.55.144-.845zm7.882 2.119a2.309 2.309 0 01-.962.858c-.399.19-.819.286-1.26.286-.478 0-.907-.082-1.288-.247a2.956 2.956 0 01-.975-.702 3.14 3.14 0 01-.624-1.04 3.644 3.644 0 01-.22-1.274c0-.45.073-.871.22-1.261a3.14 3.14 0 01.624-1.04c.277-.295.607-.524.988-.689a3.147 3.147 0 011.261-.247c.503 0 .94.108 1.313.325.373.208.667.464.884.767h.026v-4.589h1.222V34H86.24v-.975h-.026zm-4.056-2.119c0 .286.043.563.13.832.087.269.217.507.39.715.173.208.386.377.637.507.251.121.546.182.884.182.312 0 .594-.06.845-.182.26-.121.481-.282.663-.481.182-.208.32-.446.416-.715a2.32 2.32 0 00.156-.845 2.32 2.32 0 00-.156-.845 2.184 2.184 0 00-.416-.715 1.984 1.984 0 00-1.508-.676c-.338 0-.633.06-.884.182a1.883 1.883 0 00-.637.494 2.12 2.12 0 00-.39.715c-.087.269-.13.546-.13.832zm7.459-6.11h1.287v3.848h4.654v-3.848h1.3V34h-1.3v-4.212h-4.654V34h-1.287v-9.204zm15.646 6.11c0 .477-.087.914-.26 1.313a3.073 3.073 0 01-.702 1.04 3.24 3.24 0 01-1.053.676 3.643 3.643 0 01-1.313.234c-.468 0-.906-.078-1.313-.234a3.227 3.227 0 01-1.053-.676 3.337 3.337 0 01-.702-1.04 3.408 3.408 0 01-.247-1.313c0-.477.082-.91.247-1.3.173-.399.407-.741.702-1.027a3.062 3.062 0 011.053-.663 3.468 3.468 0 011.313-.247c.468 0 .905.082 1.313.247a3.073 3.073 0 011.755 1.69c.173.39.26.823.26 1.3zm-1.274 0c0-.295-.048-.576-.143-.845a1.994 1.994 0 00-.39-.702 1.858 1.858 0 00-.65-.494 1.984 1.984 0 00-.871-.182c-.33 0-.624.06-.884.182a1.874 1.874 0 00-.637.494c-.174.2-.308.433-.403.702-.087.269-.13.55-.13.845 0 .295.043.576.13.845.095.269.229.507.403.715.173.208.385.373.637.494.26.121.554.182.884.182.329 0 .619-.06.871-.182.26-.121.476-.286.65-.494.173-.208.303-.446.39-.715.095-.269.143-.55.143-.845zm7.31 3.094a8.554 8.554 0 01-.039-.52c-.008-.2-.013-.364-.013-.494h-.026c-.156.33-.42.611-.793.845a2.274 2.274 0 01-1.222.338c-.398 0-.745-.065-1.04-.195a2.015 2.015 0 01-.715-.533 2.554 2.554 0 01-.416-.806 3.56 3.56 0 01-.13-.975v-3.822h1.222v3.406c0 .251.018.494.052.728.044.225.117.425.221.598s.247.312.429.416c.182.104.416.156.702.156.494 0 .893-.182 1.196-.546.304-.373.455-.867.455-1.482v-3.276h1.222v4.836c0 .165.005.377.013.637.009.26.022.49.039.689h-1.157zm6.553-4.602a1.553 1.553 0 00-.585-.546 1.642 1.642 0 00-.845-.221c-.139 0-.278.017-.416.052a1.092 1.092 0 00-.377.143.783.783 0 00-.26.247.664.664 0 00-.091.364c0 .26.117.455.351.585.234.121.585.234 1.053.338.294.07.567.152.819.247.251.095.468.217.65.364.19.139.338.308.442.507.104.2.156.433.156.702 0 .364-.07.672-.208.923-.139.251-.325.46-.559.624a2.279 2.279 0 01-.78.338c-.295.07-.598.104-.91.104-.468 0-.928-.091-1.378-.273a2.687 2.687 0 01-1.105-.832l.871-.741c.164.243.39.446.676.611.294.165.615.247.962.247a2.4 2.4 0 00.442-.039c.147-.035.277-.087.39-.156a.795.795 0 00.286-.273.81.81 0 00.104-.429c0-.286-.139-.498-.416-.637-.269-.139-.668-.269-1.196-.39a10.135 10.135 0 01-.637-.182 2.279 2.279 0 01-.572-.312 1.614 1.614 0 01-.429-.481 1.558 1.558 0 01-.156-.728c0-.33.065-.611.195-.845.138-.243.316-.438.533-.585.216-.156.463-.269.741-.338a3.224 3.224 0 012.132.143c.416.173.736.425.962.754l-.845.715zm6.959.975a2.138 2.138 0 00-.13-.676 1.441 1.441 0 00-.325-.559 1.39 1.39 0 00-.533-.364 1.767 1.767 0 00-.741-.143c-.26 0-.507.048-.741.143a1.91 1.91 0 00-.598.364 2.09 2.09 0 00-.416.559 1.773 1.773 0 00-.182.676h3.666zm1.235.494v.208c0 .07-.004.139-.013.208h-4.888c.009.26.065.507.169.741.113.225.26.425.442.598.182.165.39.295.624.39.243.095.498.143.767.143.416 0 .776-.091 1.079-.273.303-.182.542-.403.715-.663l.858.689a3.086 3.086 0 01-1.17.962c-.442.2-.936.299-1.482.299-.468 0-.901-.078-1.3-.234a3.052 3.052 0 01-1.027-.65 3.12 3.12 0 01-.676-1.027 3.436 3.436 0 01-.247-1.326c0-.477.078-.914.234-1.313a3.09 3.09 0 01.676-1.04 2.983 2.983 0 011.014-.663c.39-.165.81-.247 1.261-.247.451 0 .858.074 1.222.221.373.147.685.36.936.637.26.277.459.615.598 1.014.139.39.208.832.208 1.326z" fill="#D2DEDA"/></svg>