<svg width="127" height="39" viewBox="0 0 127 39" fill="none" xmlns="http://www.w3.org/2000/svg">
<path d="M46 20.0732L23.5 8L1 20.0732V38H46V20.0732Z" stroke="#D2DEDA"/>
<line x1="32.5" y1="21" x2="32.5" y2="35" stroke="#007A6F"/>
<line x1="23.5" y1="13" x2="23.5" y2="35" stroke="#007A6F"/>
<path d="M28 17V35" stroke="#007A6F"/>
<line x1="36.5" y1="25" x2="36.5" y2="35" stroke="#007A6F"/>
<path d="M41 29V35" stroke="#007A6F"/>
<path d="M55.549 32.128H55.575L57.733 24.796H59.15L61.295 32.128H61.321L63.349 24.796H64.714L62.01 34H60.671L58.435 26.603H58.409L56.173 34H54.834L52.13 24.796H53.521L55.549 32.128ZM71.6709 30.906C71.6709 31.3827 71.5843 31.8203 71.4109 32.219C71.2463 32.6177 71.0123 32.9643 70.7089 33.259C70.4143 33.545 70.0633 33.7703 69.6559 33.935C69.2486 34.091 68.8109 34.169 68.3429 34.169C67.8749 34.169 67.4373 34.091 67.0299 33.935C66.6226 33.7703 66.2716 33.545 65.9769 33.259C65.6823 32.9643 65.4483 32.6177 65.2749 32.219C65.1103 31.8203 65.0279 31.3827 65.0279 30.906C65.0279 30.4293 65.1103 29.996 65.2749 29.606C65.4483 29.2073 65.6823 28.865 65.9769 28.579C66.2716 28.293 66.6226 28.072 67.0299 27.916C67.4373 27.7513 67.8749 27.669 68.3429 27.669C68.8109 27.669 69.2486 27.7513 69.6559 27.916C70.0633 28.072 70.4143 28.293 70.7089 28.579C71.0123 28.865 71.2463 29.2073 71.4109 29.606C71.5843 29.996 71.6709 30.4293 71.6709 30.906ZM70.3969 30.906C70.3969 30.6113 70.3493 30.3297 70.2539 30.061C70.1673 29.7923 70.0373 29.5583 69.8639 29.359C69.6906 29.151 69.4739 28.9863 69.2139 28.865C68.9626 28.7437 68.6723 28.683 68.3429 28.683C68.0136 28.683 67.7189 28.7437 67.4589 28.865C67.2076 28.9863 66.9953 29.151 66.8219 29.359C66.6486 29.5583 66.5143 29.7923 66.4189 30.061C66.3323 30.3297 66.2889 30.6113 66.2889 30.906C66.2889 31.2007 66.3323 31.4823 66.4189 31.751C66.5143 32.0197 66.6486 32.258 66.8219 32.466C66.9953 32.674 67.2076 32.8387 67.4589 32.96C67.7189 33.0813 68.0136 33.142 68.3429 33.142C68.6723 33.142 68.9626 33.0813 69.2139 32.96C69.4739 32.8387 69.6906 32.674 69.8639 32.466C70.0373 32.258 70.1673 32.0197 70.2539 31.751C70.3493 31.4823 70.3969 31.2007 70.3969 30.906ZM79.6055 30.906C79.6055 31.3827 79.5188 31.8203 79.3455 32.219C79.1808 32.6177 78.9468 32.9643 78.6435 33.259C78.3488 33.545 77.9978 33.7703 77.5905 33.935C77.1832 34.091 76.7455 34.169 76.2775 34.169C75.8095 34.169 75.3718 34.091 74.9645 33.935C74.5572 33.7703 74.2062 33.545 73.9115 33.259C73.6168 32.9643 73.3828 32.6177 73.2095 32.219C73.0448 31.8203 72.9625 31.3827 72.9625 30.906C72.9625 30.4293 73.0448 29.996 73.2095 29.606C73.3828 29.2073 73.6168 28.865 73.9115 28.579C74.2062 28.293 74.5572 28.072 74.9645 27.916C75.3718 27.7513 75.8095 27.669 76.2775 27.669C76.7455 27.669 77.1832 27.7513 77.5905 27.916C77.9978 28.072 78.3488 28.293 78.6435 28.579C78.9468 28.865 79.1808 29.2073 79.3455 29.606C79.5188 29.996 79.6055 30.4293 79.6055 30.906ZM78.3315 30.906C78.3315 30.6113 78.2838 30.3297 78.1885 30.061C78.1018 29.7923 77.9718 29.5583 77.7985 29.359C77.6252 29.151 77.4085 28.9863 77.1485 28.865C76.8972 28.7437 76.6068 28.683 76.2775 28.683C75.9482 28.683 75.6535 28.7437 75.3935 28.865C75.1422 28.9863 74.9298 29.151 74.7565 29.359C74.5832 29.5583 74.4488 29.7923 74.3535 30.061C74.2668 30.3297 74.2235 30.6113 74.2235 30.906C74.2235 31.2007 74.2668 31.4823 74.3535 31.751C74.4488 32.0197 74.5832 32.258 74.7565 32.466C74.9298 32.674 75.1422 32.8387 75.3935 32.96C75.6535 33.0813 75.9482 33.142 76.2775 33.142C76.6068 33.142 76.8972 33.0813 77.1485 32.96C77.4085 32.8387 77.6252 32.674 77.7985 32.466C77.9718 32.258 78.1018 32.0197 78.1885 31.751C78.2838 31.4823 78.3315 31.2007 78.3315 30.906ZM86.2141 33.025C85.9801 33.3977 85.6594 33.6837 85.2521 33.883C84.8534 34.0737 84.4331 34.169 83.9911 34.169C83.5144 34.169 83.0854 34.0867 82.7041 33.922C82.3227 33.7487 81.9977 33.5147 81.7291 33.22C81.4604 32.9253 81.2524 32.5787 81.1051 32.18C80.9577 31.7813 80.8841 31.3567 80.8841 30.906C80.8841 30.4553 80.9577 30.035 81.1051 29.645C81.2524 29.2463 81.4604 28.8997 81.7291 28.605C82.0064 28.3103 82.3357 28.0807 82.7171 27.916C83.0984 27.7513 83.5187 27.669 83.9781 27.669C84.4807 27.669 84.9184 27.7773 85.2911 27.994C85.6637 28.202 85.9584 28.4577 86.1751 28.761H86.2011V24.172H87.4231V34H86.2401V33.025H86.2141ZM82.1581 30.906C82.1581 31.192 82.2014 31.4693 82.2881 31.738C82.3747 32.0067 82.5047 32.245 82.6781 32.453C82.8514 32.661 83.0637 32.83 83.3151 32.96C83.5664 33.0813 83.8611 33.142 84.1991 33.142C84.5111 33.142 84.7927 33.0813 85.0441 32.96C85.3041 32.8387 85.5251 32.6783 85.7071 32.479C85.8891 32.271 86.0277 32.0327 86.1231 31.764C86.2271 31.4953 86.2791 31.2137 86.2791 30.919C86.2791 30.6243 86.2271 30.3427 86.1231 30.074C86.0277 29.8053 85.8891 29.567 85.7071 29.359C85.5251 29.151 85.3041 28.9863 85.0441 28.865C84.7927 28.7437 84.5111 28.683 84.1991 28.683C83.8611 28.683 83.5664 28.7437 83.3151 28.865C83.0637 28.9863 82.8514 29.151 82.6781 29.359C82.5047 29.567 82.3747 29.8053 82.2881 30.074C82.2014 30.3427 82.1581 30.62 82.1581 30.906ZM89.617 24.796H90.904V28.644H95.558V24.796H96.858V34H95.558V29.788H90.904V34H89.617V24.796ZM105.263 30.906C105.263 31.3827 105.176 31.8203 105.003 32.219C104.838 32.6177 104.604 32.9643 104.301 33.259C104.006 33.545 103.655 33.7703 103.248 33.935C102.84 34.091 102.403 34.169 101.935 34.169C101.467 34.169 101.029 34.091 100.622 33.935C100.214 33.7703 99.8634 33.545 99.5687 33.259C99.2741 32.9643 99.0401 32.6177 98.8667 32.219C98.7021 31.8203 98.6197 31.3827 98.6197 30.906C98.6197 30.4293 98.7021 29.996 98.8667 29.606C99.0401 29.2073 99.2741 28.865 99.5687 28.579C99.8634 28.293 100.214 28.072 100.622 27.916C101.029 27.7513 101.467 27.669 101.935 27.669C102.403 27.669 102.84 27.7513 103.248 27.916C103.655 28.072 104.006 28.293 104.301 28.579C104.604 28.865 104.838 29.2073 105.003 29.606C105.176 29.996 105.263 30.4293 105.263 30.906ZM103.989 30.906C103.989 30.6113 103.941 30.3297 103.846 30.061C103.759 29.7923 103.629 29.5583 103.456 29.359C103.282 29.151 103.066 28.9863 102.806 28.865C102.554 28.7437 102.264 28.683 101.935 28.683C101.605 28.683 101.311 28.7437 101.051 28.865C100.799 28.9863 100.587 29.151 100.414 29.359C100.24 29.5583 100.106 29.7923 100.011 30.061C99.9241 30.3297 99.8807 30.6113 99.8807 30.906C99.8807 31.2007 99.9241 31.4823 100.011 31.751C100.106 32.0197 100.24 32.258 100.414 32.466C100.587 32.674 100.799 32.8387 101.051 32.96C101.311 33.0813 101.605 33.142 101.935 33.142C102.264 33.142 102.554 33.0813 102.806 32.96C103.066 32.8387 103.282 32.674 103.456 32.466C103.629 32.258 103.759 32.0197 103.846 31.751C103.941 31.4823 103.989 31.2007 103.989 30.906ZM111.299 34C111.282 33.844 111.269 33.6707 111.26 33.48C111.252 33.2807 111.247 33.116 111.247 32.986H111.221C111.065 33.3153 110.801 33.597 110.428 33.831C110.064 34.0563 109.657 34.169 109.206 34.169C108.808 34.169 108.461 34.104 108.166 33.974C107.88 33.844 107.642 33.6663 107.451 33.441C107.269 33.207 107.131 32.9383 107.035 32.635C106.949 32.3317 106.905 32.0067 106.905 31.66V27.838H108.127V31.244C108.127 31.4953 108.145 31.738 108.179 31.972C108.223 32.1973 108.296 32.3967 108.4 32.57C108.504 32.7433 108.647 32.882 108.829 32.986C109.011 33.09 109.245 33.142 109.531 33.142C110.025 33.142 110.424 32.96 110.727 32.596C111.031 32.2233 111.182 31.7293 111.182 31.114V27.838H112.404V32.674C112.404 32.8387 112.409 33.051 112.417 33.311C112.426 33.571 112.439 33.8007 112.456 34H111.299ZM117.852 29.398C117.713 29.1727 117.518 28.9907 117.267 28.852C117.015 28.7047 116.734 28.631 116.422 28.631C116.283 28.631 116.144 28.6483 116.006 28.683C115.867 28.709 115.741 28.7567 115.629 28.826C115.525 28.8867 115.438 28.969 115.369 29.073C115.308 29.1683 115.278 29.2897 115.278 29.437C115.278 29.697 115.395 29.892 115.629 30.022C115.863 30.1433 116.214 30.256 116.682 30.36C116.976 30.4293 117.249 30.5117 117.501 30.607C117.752 30.7023 117.969 30.8237 118.151 30.971C118.341 31.1097 118.489 31.2787 118.593 31.478C118.697 31.6773 118.749 31.9113 118.749 32.18C118.749 32.544 118.679 32.8517 118.541 33.103C118.402 33.3543 118.216 33.5623 117.982 33.727C117.756 33.883 117.496 33.9957 117.202 34.065C116.907 34.1343 116.604 34.169 116.292 34.169C115.824 34.169 115.364 34.078 114.914 33.896C114.472 33.714 114.103 33.4367 113.809 33.064L114.68 32.323C114.844 32.5657 115.07 32.7693 115.356 32.934C115.65 33.0987 115.971 33.181 116.318 33.181C116.474 33.181 116.621 33.168 116.76 33.142C116.907 33.1073 117.037 33.0553 117.15 32.986C117.271 32.9167 117.366 32.8257 117.436 32.713C117.505 32.6003 117.54 32.4573 117.54 32.284C117.54 31.998 117.401 31.7857 117.124 31.647C116.855 31.5083 116.456 31.3783 115.928 31.257C115.72 31.205 115.507 31.1443 115.291 31.075C115.083 30.997 114.892 30.893 114.719 30.763C114.545 30.633 114.402 30.4727 114.29 30.282C114.186 30.0827 114.134 29.84 114.134 29.554C114.134 29.2247 114.199 28.943 114.329 28.709C114.467 28.4663 114.645 28.2713 114.862 28.124C115.078 27.968 115.325 27.8553 115.603 27.786C115.88 27.708 116.166 27.669 116.461 27.669C116.903 27.669 117.327 27.7557 117.735 27.929C118.151 28.1023 118.471 28.3537 118.697 28.683L117.852 29.398ZM124.811 30.373C124.802 30.1303 124.759 29.905 124.681 29.697C124.612 29.4803 124.503 29.294 124.356 29.138C124.217 28.982 124.04 28.8607 123.823 28.774C123.615 28.6787 123.368 28.631 123.082 28.631C122.822 28.631 122.575 28.6787 122.341 28.774C122.116 28.8607 121.916 28.982 121.743 29.138C121.578 29.294 121.44 29.4803 121.327 29.697C121.223 29.905 121.162 30.1303 121.145 30.373H124.811ZM126.046 30.867C126.046 30.9363 126.046 31.0057 126.046 31.075C126.046 31.1443 126.042 31.2137 126.033 31.283H121.145C121.154 31.543 121.21 31.79 121.314 32.024C121.427 32.2493 121.574 32.4487 121.756 32.622C121.938 32.7867 122.146 32.9167 122.38 33.012C122.623 33.1073 122.878 33.155 123.147 33.155C123.563 33.155 123.923 33.064 124.226 32.882C124.529 32.7 124.768 32.479 124.941 32.219L125.799 32.908C125.47 33.3413 125.08 33.662 124.629 33.87C124.187 34.0693 123.693 34.169 123.147 34.169C122.679 34.169 122.246 34.091 121.847 33.935C121.448 33.779 121.106 33.5623 120.82 33.285C120.534 32.999 120.309 32.6567 120.144 32.258C119.979 31.8593 119.897 31.4173 119.897 30.932C119.897 30.4553 119.975 30.0177 120.131 29.619C120.296 29.2117 120.521 28.865 120.807 28.579C121.093 28.293 121.431 28.072 121.821 27.916C122.211 27.7513 122.631 27.669 123.082 27.669C123.533 27.669 123.94 27.7427 124.304 27.89C124.677 28.0373 124.989 28.2497 125.24 28.527C125.5 28.8043 125.699 29.1423 125.838 29.541C125.977 29.931 126.046 30.373 126.046 30.867Z" fill="#D2DEDA"/>
</svg>
